<svg xmlns="http://www.w3.org/2000/svg" xmlns:xlink="http://www.w3.org/1999/xlink" contentStyleType="text/css" data-diagram-type="DESCRIPTION" height="833px" preserveAspectRatio="none" style="width:665px;height:833px;background:#FEFEFE;" version="1.1" viewBox="0 0 665 833" width="665px" zoomAndPan="magnify"><title>Material Box System Architecture</title><defs/><g><rect fill="#FEFEFE" height="833" style="stroke:none;stroke-width:1;" width="665" x="0" y="0"/><g class="title" data-source-line="1"><text fill="#000000" font-family="sans-serif" font-size="14" font-weight="bold" lengthAdjust="spacing" textLength="223.3027" x="213.8486" y="23.1318">Material Box System Architecture</text></g><!--cluster Klipper Host--><g class="cluster" data-entity="Klipper Host" data-source-line="4" data-uid="ent0002" id="cluster_Klipper Host"><path d="M8.5,43.0986 L92.7275,43.0986 A3.75,3.75 0 0 1 95.2275,45.5986 L102.2275,65.1973 L438.5,65.1973 A2.5,2.5 0 0 1 441,67.6973 L441,413.5986 A2.5,2.5 0 0 1 438.5,416.0986 L8.5,416.0986 A2.5,2.5 0 0 1 6,413.5986 L6,45.5986 A2.5,2.5 0 0 1 8.5,43.0986" fill="none" style="stroke:#000000;stroke-width:1.5;"/><line style="stroke:#000000;stroke-width:1.5;" x1="6" x2="102.2275" y1="65.1973" y2="65.1973"/><text fill="#000000" font-family="sans-serif" font-size="14" font-weight="bold" lengthAdjust="spacing" textLength="83.2275" x="10" y="58.2305">Klipper Host</text></g><!--cluster RS-485 Bus--><g class="cluster" data-entity="RS-485 Bus" data-source-line="11" data-uid="ent0007" id="cluster_RS-485 Bus"><path d="M282.5,464.0986 L361.3066,464.0986 A3.75,3.75 0 0 1 363.8066,466.5986 L370.8066,486.1973 L389.5,486.1973 A2.5,2.5 0 0 1 392,488.6973 L392,570.5986 A2.5,2.5 0 0 1 389.5,573.0986 L282.5,573.0986 A2.5,2.5 0 0 1 280,570.5986 L280,466.5986 A2.5,2.5 0 0 1 282.5,464.0986" fill="none" style="stroke:#000000;stroke-width:1.5;"/><line style="stroke:#000000;stroke-width:1.5;" x1="280" x2="370.8066" y1="486.1973" y2="486.1973"/><text fill="#000000" font-family="sans-serif" font-size="14" font-weight="bold" lengthAdjust="spacing" textLength="77.8066" x="284" y="479.2305">RS-485 Bus</text></g><!--cluster Material Box Hardware--><g class="cluster" data-entity="Material Box Hardware" data-source-line="15" data-uid="ent0009" id="cluster_Material Box Hardware"><path d="M27.5,606.0986 L179.4443,606.0986 A3.75,3.75 0 0 1 181.9443,608.5986 L188.9443,628.1973 L655.5,628.1973 A2.5,2.5 0 0 1 658,630.6973 L658,823.5986 A2.5,2.5 0 0 1 655.5,826.0986 L27.5,826.0986 A2.5,2.5 0 0 1 25,823.5986 L25,608.5986 A2.5,2.5 0 0 1 27.5,606.0986" fill="none" style="stroke:#000000;stroke-width:1.5;"/><line style="stroke:#000000;stroke-width:1.5;" x1="25" x2="188.9443" y1="628.1973" y2="628.1973"/><text fill="#000000" font-family="sans-serif" font-size="14" font-weight="bold" lengthAdjust="spacing" textLength="150.9443" x="29" y="621.2305">Material Box Hardware</text></g><!--entity Macros--><g class="entity" data-entity="Macros" data-source-line="5" data-uid="ent0003" id="entity_Macros"><rect fill="#F1F1F1" height="46.0986" rx="2.5" ry="2.5" style="stroke:#181818;stroke-width:0.5;" width="134.1445" x="131" y="78.0986"/><rect fill="#F1F1F1" height="10" style="stroke:#181818;stroke-width:0.5;" width="15" x="245.1445" y="83.0986"/><rect fill="#F1F1F1" height="2" style="stroke:#181818;stroke-width:0.5;" width="4" x="243.1445" y="85.0986"/><rect fill="#F1F1F1" height="2" style="stroke:#181818;stroke-width:0.5;" width="4" x="243.1445" y="89.0986"/><text fill="#000000" font-family="sans-serif" font-size="14" lengthAdjust="spacing" textLength="94.1445" x="146" y="111.2305">GCode Macros</text></g><!--entity BoxWrapper--><g class="entity" data-entity="BoxWrapper" data-source-line="6" data-uid="ent0004" id="entity_BoxWrapper"><rect fill="#F1F1F1" height="62.1973" rx="2.5" ry="2.5" style="stroke:#181818;stroke-width:0.5;" width="176.9238" x="109.5" y="200.0986"/><rect fill="#F1F1F1" height="10" style="stroke:#181818;stroke-width:0.5;" width="15" x="266.4238" y="205.0986"/><rect fill="#F1F1F1" height="2" style="stroke:#181818;stroke-width:0.5;" width="4" x="264.4238" y="207.0986"/><rect fill="#F1F1F1" height="2" style="stroke:#181818;stroke-width:0.5;" width="4" x="264.4238" y="211.0986"/><text fill="#000000" font-family="sans-serif" font-size="14" lengthAdjust="spacing" textLength="22.5723" x="124.5" y="233.2305">box</text><text fill="#000000" font-family="sans-serif" font-size="14" lengthAdjust="spacing" textLength="136.9238" x="124.5" y="249.3291">(MaterialBoxWrapper)</text></g><!--entity RackWrapper--><g class="entity" data-entity="RackWrapper" data-source-line="7" data-uid="ent0005" id="entity_RackWrapper"><rect fill="#F1F1F1" height="62.1973" rx="2.5" ry="2.5" style="stroke:#181818;stroke-width:0.5;" width="188.5859" x="22.5" y="338.0986"/><rect fill="#F1F1F1" height="10" style="stroke:#181818;stroke-width:0.5;" width="15" x="191.0859" y="343.0986"/><rect fill="#F1F1F1" height="2" style="stroke:#181818;stroke-width:0.5;" width="4" x="189.0859" y="345.0986"/><rect fill="#F1F1F1" height="2" style="stroke:#181818;stroke-width:0.5;" width="4" x="189.0859" y="349.0986"/><text fill="#000000" font-family="sans-serif" font-size="14" lengthAdjust="spacing" textLength="83.2549" x="37.5" y="371.2305">filament_rack</text><text fill="#000000" font-family="sans-serif" font-size="14" lengthAdjust="spacing" textLength="148.5859" x="37.5" y="387.3291">(FilamentRackWrapper)</text></g><!--entity SerialWrapper--><g class="entity" data-entity="SerialWrapper" data-source-line="8" data-uid="ent0006" id="entity_SerialWrapper"><rect fill="#F1F1F1" height="62.1973" rx="2.5" ry="2.5" style="stroke:#181818;stroke-width:0.5;" width="177.7305" x="247" y="338.0986"/><rect fill="#F1F1F1" height="10" style="stroke:#181818;stroke-width:0.5;" width="15" x="404.7305" y="343.0986"/><rect fill="#F1F1F1" height="2" style="stroke:#181818;stroke-width:0.5;" width="4" x="402.7305" y="345.0986"/><rect fill="#F1F1F1" height="2" style="stroke:#181818;stroke-width:0.5;" width="4" x="402.7305" y="349.0986"/><text fill="#000000" font-family="sans-serif" font-size="14" lengthAdjust="spacing" textLength="64.5996" x="262" y="371.2305">serial_485</text><text fill="#000000" font-family="sans-serif" font-size="14" lengthAdjust="spacing" textLength="137.7305" x="262" y="387.3291">(Serial_485_Wrapper)</text></g><!--entity SerialPort--><g class="entity" data-entity="SerialPort" data-source-line="12" data-uid="ent0008" id="entity_SerialPort"><ellipse cx="336" cy="528.0986" fill="#F1F1F1" rx="8" ry="8" style="stroke:#181818;stroke-width:0.5;"/><text fill="#000000" font-family="sans-serif" font-size="14" lengthAdjust="spacing" textLength="65.3584" x="303.3208" y="558.2305">Serial Port</text></g><!--entity Box1--><g class="entity" data-entity="Box1" data-source-line="16" data-uid="ent0010" id="entity_Box1"><rect fill="#F1F1F1" height="62.1973" rx="2.5" ry="2.5" style="stroke:#181818;stroke-width:0.5;" width="115.8789" x="73" y="641.0986"/><rect fill="#F1F1F1" height="10" style="stroke:#181818;stroke-width:0.5;" width="15" x="168.8789" y="646.0986"/><rect fill="#F1F1F1" height="2" style="stroke:#181818;stroke-width:0.5;" width="4" x="166.8789" y="648.0986"/><rect fill="#F1F1F1" height="2" style="stroke:#181818;stroke-width:0.5;" width="4" x="166.8789" y="652.0986"/><text fill="#000000" font-family="sans-serif" font-size="14" lengthAdjust="spacing" textLength="35.7998" x="88" y="674.2305">Box 1</text><text fill="#000000" font-family="sans-serif" font-size="14" lengthAdjust="spacing" textLength="75.8789" x="88" y="690.3291">(addr=0x01)</text></g><!--entity Box2--><g class="entity" data-entity="Box2" data-source-line="17" data-uid="ent0011" id="entity_Box2"><rect fill="#F1F1F1" height="62.1973" rx="2.5" ry="2.5" style="stroke:#181818;stroke-width:0.5;" width="115.8789" x="224" y="641.0986"/><rect fill="#F1F1F1" height="10" style="stroke:#181818;stroke-width:0.5;" width="15" x="319.8789" y="646.0986"/><rect fill="#F1F1F1" height="2" style="stroke:#181818;stroke-width:0.5;" width="4" x="317.8789" y="648.0986"/><rect fill="#F1F1F1" height="2" style="stroke:#181818;stroke-width:0.5;" width="4" x="317.8789" y="652.0986"/><text fill="#000000" font-family="sans-serif" font-size="14" lengthAdjust="spacing" textLength="35.7998" x="239" y="674.2305">Box 2</text><text fill="#000000" font-family="sans-serif" font-size="14" lengthAdjust="spacing" textLength="75.8789" x="239" y="690.3291">(addr=0x02)</text></g><!--entity Box3--><g class="entity" data-entity="Box3" data-source-line="18" data-uid="ent0012" id="entity_Box3"><rect fill="#F1F1F1" height="62.1973" rx="2.5" ry="2.5" style="stroke:#181818;stroke-width:0.5;" width="115.8789" x="375" y="641.0986"/><rect fill="#F1F1F1" height="10" style="stroke:#181818;stroke-width:0.5;" width="15" x="470.8789" y="646.0986"/><rect fill="#F1F1F1" height="2" style="stroke:#181818;stroke-width:0.5;" width="4" x="468.8789" y="648.0986"/><rect fill="#F1F1F1" height="2" style="stroke:#181818;stroke-width:0.5;" width="4" x="468.8789" y="652.0986"/><text fill="#000000" font-family="sans-serif" font-size="14" lengthAdjust="spacing" textLength="35.7998" x="390" y="674.2305">Box 3</text><text fill="#000000" font-family="sans-serif" font-size="14" lengthAdjust="spacing" textLength="75.8789" x="390" y="690.3291">(addr=0x03)</text></g><!--entity Box4--><g class="entity" data-entity="Box4" data-source-line="19" data-uid="ent0013" id="entity_Box4"><rect fill="#F1F1F1" height="62.1973" rx="2.5" ry="2.5" style="stroke:#181818;stroke-width:0.5;" width="115.8789" x="526" y="641.0986"/><rect fill="#F1F1F1" height="10" style="stroke:#181818;stroke-width:0.5;" width="15" x="621.8789" y="646.0986"/><rect fill="#F1F1F1" height="2" style="stroke:#181818;stroke-width:0.5;" width="4" x="619.8789" y="648.0986"/><rect fill="#F1F1F1" height="2" style="stroke:#181818;stroke-width:0.5;" width="4" x="619.8789" y="652.0986"/><text fill="#000000" font-family="sans-serif" font-size="14" lengthAdjust="spacing" textLength="35.7998" x="541" y="674.2305">Box 4</text><text fill="#000000" font-family="sans-serif" font-size="14" lengthAdjust="spacing" textLength="75.8789" x="541" y="690.3291">(addr=0x04)</text></g><!--entity Motor--><g class="entity" data-entity="Motor" data-source-line="21" data-uid="ent0014" id="entity_Motor"><rect fill="#F1F1F1" height="46.0986" rx="2.5" ry="2.5" style="stroke:#181818;stroke-width:0.5;" width="140.3652" x="41" y="764.0986"/><rect fill="#F1F1F1" height="10" style="stroke:#181818;stroke-width:0.5;" width="15" x="161.3652" y="769.0986"/><rect fill="#F1F1F1" height="2" style="stroke:#181818;stroke-width:0.5;" width="4" x="159.3652" y="771.0986"/><rect fill="#F1F1F1" height="2" style="stroke:#181818;stroke-width:0.5;" width="4" x="159.3652" y="775.0986"/><text fill="#000000" font-family="sans-serif" font-size="14" lengthAdjust="spacing" textLength="100.3652" x="56" y="797.2305">Motor Controller</text></g><!--entity Sensor--><g class="entity" data-entity="Sensor" data-source-line="22" data-uid="ent0015" id="entity_Sensor"><rect fill="#F1F1F1" height="46.0986" rx="2.5" ry="2.5" style="stroke:#181818;stroke-width:0.5;" width="141.9307" x="216" y="764.0986"/><rect fill="#F1F1F1" height="10" style="stroke:#181818;stroke-width:0.5;" width="15" x="337.9307" y="769.0986"/><rect fill="#F1F1F1" height="2" style="stroke:#181818;stroke-width:0.5;" width="4" x="335.9307" y="771.0986"/><rect fill="#F1F1F1" height="2" style="stroke:#181818;stroke-width:0.5;" width="4" x="335.9307" y="775.0986"/><text fill="#000000" font-family="sans-serif" font-size="14" lengthAdjust="spacing" textLength="101.9307" x="231" y="797.2305">Filament Sensor</text></g><!--entity Encoder--><g class="entity" data-entity="Encoder" data-source-line="23" data-uid="ent0016" id="entity_Encoder"><rect fill="#F1F1F1" height="46.0986" rx="2.5" ry="2.5" style="stroke:#181818;stroke-width:0.5;" width="92.1445" x="393" y="764.0986"/><rect fill="#F1F1F1" height="10" style="stroke:#181818;stroke-width:0.5;" width="15" x="465.1445" y="769.0986"/><rect fill="#F1F1F1" height="2" style="stroke:#181818;stroke-width:0.5;" width="4" x="463.1445" y="771.0986"/><rect fill="#F1F1F1" height="2" style="stroke:#181818;stroke-width:0.5;" width="4" x="463.1445" y="775.0986"/><text fill="#000000" font-family="sans-serif" font-size="14" lengthAdjust="spacing" textLength="52.1445" x="408" y="797.2305">Encoder</text></g><!--entity RFID--><g class="entity" data-entity="RFID" data-source-line="24" data-uid="ent0017" id="entity_RFID"><rect fill="#F1F1F1" height="46.0986" rx="2.5" ry="2.5" style="stroke:#181818;stroke-width:0.5;" width="122.4688" x="520" y="764.0986"/><rect fill="#F1F1F1" height="10" style="stroke:#181818;stroke-width:0.5;" width="15" x="622.4688" y="769.0986"/><rect fill="#F1F1F1" height="2" style="stroke:#181818;stroke-width:0.5;" width="4" x="620.4688" y="771.0986"/><rect fill="#F1F1F1" height="2" style="stroke:#181818;stroke-width:0.5;" width="4" x="620.4688" y="775.0986"/><text fill="#000000" font-family="sans-serif" font-size="14" lengthAdjust="spacing" textLength="82.4688" x="535" y="797.2305">RFID Reader</text></g><!--link Macros to BoxWrapper--><g class="link" data-entity-1="Macros" data-entity-2="BoxWrapper" data-source-line="27" data-uid="lnk18" id="link_Macros_BoxWrapper"><path d="M198,124.0986 C198,144.9786 198,170.5186 198,193.7686" fill="none" id="Macros-to-BoxWrapper" style="stroke:#181818;stroke-width:1;"/><polygon fill="#181818" points="198,199.7686,202,190.7686,198,194.7686,194,190.7686,198,199.7686" style="stroke:#181818;stroke-width:1;"/><text fill="#000000" font-family="sans-serif" font-size="13" lengthAdjust="spacing" textLength="133.6816" x="199" y="167.2925">T1A, box_quit_material</text></g><!--link BoxWrapper to SerialWrapper--><g class="link" data-entity-1="BoxWrapper" data-entity-2="SerialWrapper" data-source-line="28" data-uid="lnk19" id="link_BoxWrapper_SerialWrapper"><path d="M228.63,262.2786 C251.5,284.8186 278.3366,311.267 301.1866,333.787" fill="none" id="BoxWrapper-to-SerialWrapper" style="stroke:#181818;stroke-width:1;"/><polygon fill="#181818" points="305.46,337.9986,301.8577,328.8322,301.8988,334.4889,296.2421,334.5301,305.46,337.9986" style="stroke:#181818;stroke-width:1;"/><text fill="#000000" font-family="sans-serif" font-size="13" lengthAdjust="spacing" textLength="68.6372" x="272" y="305.2925">cmd_send()</text></g><!--link BoxWrapper to RackWrapper--><g class="link" data-entity-1="BoxWrapper" data-entity-2="RackWrapper" data-source-line="29" data-uid="lnk20" id="link_BoxWrapper_RackWrapper"><path d="M180.02,262.2786 C166.6,284.8186 151.4098,310.3234 137.9998,332.8434" fill="none" id="BoxWrapper-to-RackWrapper" style="stroke:#181818;stroke-width:1;"/><polygon fill="#181818" points="134.93,337.9986,142.9715,332.3123,137.4882,333.7026,136.0979,328.2193,134.93,337.9986" style="stroke:#181818;stroke-width:1;"/><text fill="#000000" font-family="sans-serif" font-size="13" lengthAdjust="spacing" textLength="65.0317" x="161" y="305.2925">get velocity</text></g><!--link SerialWrapper to SerialPort--><g class="link" data-entity-1="SerialWrapper" data-entity-2="SerialPort" data-source-line="30" data-uid="lnk21" id="link_SerialWrapper_SerialPort"><path d="M336,400.3686 C336,437.2586 336,491.3486 336,512.9986" fill="none" id="SerialWrapper-to-SerialPort" style="stroke:#181818;stroke-width:1;"/><polygon fill="#181818" points="336,518.9986,340,509.9986,336,513.9986,332,509.9986,336,518.9986" style="stroke:#181818;stroke-width:1;"/><text fill="#000000" font-family="sans-serif" font-size="13" lengthAdjust="spacing" textLength="87.4199" x="337" y="445.2925">RS-485 frames</text></g><!--link SerialPort to Box1--><g class="link" data-entity-1="SerialPort" data-entity-2="Box1" data-source-line="32" data-uid="lnk22" id="link_SerialPort_Box1"><path d="M326.74,532.9886 C304.83,542.4186 248.51,567.9486 207,598.0986 C189.68,610.6786 176.5212,622.7249 162.7712,636.7449" fill="none" id="SerialPort-to-Box1" style="stroke:#181818;stroke-width:1;"/><polygon fill="#181818" points="158.57,641.0286,167.7276,637.4039,162.071,637.4589,162.016,631.8023,158.57,641.0286" style="stroke:#181818;stroke-width:1;"/></g><!--link SerialPort to Box2--><g class="link" data-entity-1="SerialPort" data-entity-2="Box2" data-source-line="33" data-uid="lnk23" id="link_SerialPort_Box2"><path d="M332.94,537.1386 C325.49,556.7386 308.212,602.1602 295.622,635.2802" fill="none" id="SerialPort-to-Box2" style="stroke:#181818;stroke-width:1;"/><polygon fill="#181818" points="293.49,640.8886,300.4269,633.8973,295.2666,636.2149,292.949,631.0546,293.49,640.8886" style="stroke:#181818;stroke-width:1;"/></g><!--link SerialPort to Box3--><g class="link" data-entity-1="SerialPort" data-entity-2="Box3" data-source-line="34" data-uid="lnk24" id="link_SerialPort_Box3"><path d="M341.49,537.1386 C354.88,556.7386 386.3561,602.8139 408.9761,635.9339" fill="none" id="SerialPort-to-Box3" style="stroke:#181818;stroke-width:1;"/><polygon fill="#181818" points="412.36,640.8886,410.5873,631.2006,409.5401,636.7597,403.981,635.7125,412.36,640.8886" style="stroke:#181818;stroke-width:1;"/></g><!--link SerialPort to Box4--><g class="link" data-entity-1="SerialPort" data-entity-2="Box4" data-source-line="35" data-uid="lnk25" id="link_SerialPort_Box4"><path d="M345.23,531.3986 C372.12,538.3786 452.04,561.1286 509,598.0986 C527.14,609.8686 540.5147,622.0929 554.0247,636.4929" fill="none" id="SerialPort-to-Box4" style="stroke:#181818;stroke-width:1;"/><polygon fill="#181818" points="558.13,640.8686,554.8892,631.5682,554.7089,637.2222,549.055,637.0419,558.13,640.8686" style="stroke:#181818;stroke-width:1;"/></g><!--link Box1 to Motor--><g class="link" data-entity-1="Box1" data-entity-2="Motor" data-source-line="37" data-uid="lnk26" id="link_Box1_Motor"><path d="M125.64,703.3786 C122.26,722.4686 119.0156,740.7804 115.9556,758.0704" fill="none" id="Box1-to-Motor" style="stroke:#181818;stroke-width:1;"/><polygon fill="#181818" points="114.91,763.9786,120.4172,755.8134,115.7814,759.0551,112.5397,754.4193,114.91,763.9786" style="stroke:#181818;stroke-width:1;"/></g><!--link Box1 to Sensor--><g class="link" data-entity-1="Box1" data-entity-2="Sensor" data-source-line="38" data-uid="lnk27" id="link_Box1_Sensor"><path d="M172.81,703.3786 C199.16,722.4686 227.7415,743.168 251.6015,760.458" fill="none" id="Box1-to-Sensor" style="stroke:#181818;stroke-width:1;"/><polygon fill="#181818" points="256.46,763.9786,251.5194,755.4586,252.4113,761.0447,246.8252,761.9366,256.46,763.9786" style="stroke:#181818;stroke-width:1;"/></g><!--link Box1 to Encoder--><g class="link" data-entity-1="Box1" data-entity-2="Encoder" data-source-line="39" data-uid="lnk28" id="link_Box1_Encoder"><path d="M189.02,696.2286 C195.08,698.5686 201.16,700.8986 207,703.0986 C241.63,716.1286 329.7541,747.4459 386.9141,767.6859" fill="none" id="Box1-to-Encoder" style="stroke:#181818;stroke-width:1;"/><polygon fill="#181818" points="392.57,769.6886,385.4213,762.914,387.8568,768.0197,382.751,770.4552,392.57,769.6886" style="stroke:#181818;stroke-width:1;"/></g><!--link Box1 to RFID--><g class="link" data-entity-1="Box1" data-entity-2="RFID" data-source-line="40" data-uid="lnk29" id="link_Box1_RFID"><path d="M189.15,697.2286 C195.13,699.3586 201.15,701.3586 207,703.0986 C335.73,741.4586 372.5,732.2886 503,764.0986 C508.47,765.4286 508.3295,765.3541 513.9995,766.8541" fill="none" id="Box1-to-RFID" style="stroke:#181818;stroke-width:1;"/><polygon fill="#181818" points="519.8,768.3886,512.1223,762.2199,514.9663,767.1099,510.0763,769.9538,519.8,768.3886" style="stroke:#181818;stroke-width:1;"/></g><!--SRC=[RLDHIyCm47xFhpZqHS61tIQ8e32dKv61R88FAYMssGosoRnakY7-TozDcwQozYNVtVTTxxvBhRI5W2ct0YKlu59lOBurLfGmmknTMf7PDGfcFgHQSUGblF7iOubwhVAnBZJ2_kJQlOojAC6N0lRk2xbQ2OHRRUmU_32Wv_bch7FtdGorUGLkwgDFlkdDYpfecg0Udf2x4eSLiyMUlP05BuMoAT8NIJUfyOnWHnW5lD9KzTFXwGd9vW6a7PMFDxhVQB3Pl4Tik5oRPYofgEK5poZfPV2WaOOEPHpirEWuVSin_-OeWaikc51lFC_n_7Xpd0G7afRGZmZzGEYtX45460J2e2KC8y8m48RCCwRQqbx7MbdKHI7Ghyi5VRxncqPKHcDjcZlw_BNAQDS-NfzzOZQvkuAPu4tIOMUElmhGwrr4kuOpU4n6Hq1t8_rSIvkMjNCiuZX9Pr-aoieyDKBb1uV_cT5z8DvIMFWIXSwatR9kaRQisnznwyqlw0SGXh4eLpUTx8ZrTyG6EsBakwjGGMzpWBMj0JTsXa1buHy0]--></g></svg>