<svg xmlns="http://www.w3.org/2000/svg" xmlns:xlink="http://www.w3.org/1999/xlink" contentStyleType="text/css" data-diagram-type="SEQUENCE" height="1369px" preserveAspectRatio="none" style="width:876px;height:1369px;background:#FEFEFE;" version="1.1" viewBox="0 0 876 1369" width="876px" zoomAndPan="magnify"><title>Filament Load Sequence (FF10)</title><defs/><g><rect fill="#FEFEFE" height="1369" style="stroke:none;stroke-width:1;" width="876" x="0" y="0"/><text fill="#000000" font-family="sans-serif" font-size="14" font-weight="bold" lengthAdjust="spacing" textLength="210.8135" x="328.7295" y="28.1318">Filament Load Sequence (FF10)</text><rect fill="none" height="228.2388" style="stroke:#000000;stroke-width:1.5;" width="671.5469" x="94.9321" y="566.5269"/><rect fill="none" height="139.3926" style="stroke:#000000;stroke-width:1.5;" width="350.8018" x="405.6772" y="648.373"/><rect fill="none" height="103.7949" style="stroke:#000000;stroke-width:1.5;" width="575.9155" x="94.9321" y="1168.0991"/><g><title>GCode</title><rect fill="#000000" fill-opacity="0.00000" height="1228.5469" width="8" x="30.1792" y="89.2959"/><line style="stroke:#181818;stroke-width:0.5;stroke-dasharray:5,5;" x1="34" x2="34" y1="89.2959" y2="1317.8428"/></g><g><title>box</title><rect fill="#000000" fill-opacity="0.00000" height="1228.5469" width="8" x="149.5527" y="89.2959"/><line style="stroke:#181818;stroke-width:0.5;stroke-dasharray:5,5;" x1="152.9321" x2="152.9321" y1="89.2959" y2="1317.8428"/></g><g><title>serial_485</title><rect fill="#000000" fill-opacity="0.00000" height="1228.5469" width="8" x="450.9771" y="89.2959"/><line style="stroke:#181818;stroke-width:0.5;stroke-dasharray:5,5;" x1="454.6772" x2="454.6772" y1="89.2959" y2="1317.8428"/></g><g><title>Material</title><rect fill="#000000" fill-opacity="0.00000" height="1228.5469" width="8" x="624.1787" y="89.2959"/><line style="stroke:#181818;stroke-width:0.5;stroke-dasharray:5,5;" x1="627.5098" x2="627.5098" y1="89.2959" y2="1317.8428"/></g><g><title>filament_rack</title><rect fill="#000000" fill-opacity="0.00000" height="1228.5469" width="8" x="715.4751" y="89.2959"/><line style="stroke:#181818;stroke-width:0.5;stroke-dasharray:5,5;" x1="718.8477" x2="718.8477" y1="89.2959" y2="1317.8428"/></g><g class="participant participant-head" data-participant="GCode"><rect fill="#E2E2F0" height="46.1973" rx="2.5" ry="2.5" style="stroke:#181818;stroke-width:0.5;" width="58.3584" x="5" y="42.0986"/><text fill="#000000" font-family="sans-serif" font-size="14" lengthAdjust="spacing" textLength="44.3584" x="12" y="62.2305">GCode</text><text fill="#000000" font-family="sans-serif" font-size="14" lengthAdjust="spacing" textLength="38.8965" x="14.731" y="78.3291">Macro</text></g><g class="participant participant-tail" data-participant="GCode"><rect fill="#E2E2F0" height="46.1973" rx="2.5" ry="2.5" style="stroke:#181818;stroke-width:0.5;" width="58.3584" x="5" y="1316.8428"/><text fill="#000000" font-family="sans-serif" font-size="14" lengthAdjust="spacing" textLength="44.3584" x="12" y="1336.9746">GCode</text><text fill="#000000" font-family="sans-serif" font-size="14" lengthAdjust="spacing" textLength="38.8965" x="14.731" y="1353.0732">Macro</text></g><g class="participant participant-head" data-participant="Box"><rect fill="#E2E2F0" height="46.1973" rx="2.5" ry="2.5" style="stroke:#181818;stroke-width:0.5;" width="97.2412" x="104.9321" y="42.0986"/><text fill="#000000" font-family="sans-serif" font-size="14" lengthAdjust="spacing" textLength="22.5723" x="142.2666" y="62.2305">box</text><text fill="#000000" font-family="sans-serif" font-size="14" lengthAdjust="spacing" textLength="83.2412" x="111.9321" y="78.3291">(MaterialBox)</text></g><g class="participant participant-tail" data-participant="Box"><rect fill="#E2E2F0" height="46.1973" rx="2.5" ry="2.5" style="stroke:#181818;stroke-width:0.5;" width="97.2412" x="104.9321" y="1316.8428"/><text fill="#000000" font-family="sans-serif" font-size="14" lengthAdjust="spacing" textLength="22.5723" x="142.2666" y="1336.9746">box</text><text fill="#000000" font-family="sans-serif" font-size="14" lengthAdjust="spacing" textLength="83.2412" x="111.9321" y="1353.0732">(MaterialBox)</text></g><g class="participant participant-head" data-participant="Serial"><rect fill="#E2E2F0" height="30.0986" rx="2.5" ry="2.5" style="stroke:#181818;stroke-width:0.5;" width="78.5996" x="415.6772" y="58.1973"/><text fill="#000000" font-family="sans-serif" font-size="14" lengthAdjust="spacing" textLength="64.5996" x="422.6772" y="78.3291">serial_485</text></g><g class="participant participant-tail" data-participant="Serial"><rect fill="#E2E2F0" height="30.0986" rx="2.5" ry="2.5" style="stroke:#181818;stroke-width:0.5;" width="78.5996" x="415.6772" y="1316.8428"/><text fill="#000000" font-family="sans-serif" font-size="14" lengthAdjust="spacing" textLength="64.5996" x="422.6772" y="1336.9746">serial_485</text></g><g class="participant participant-head" data-participant="HW"><rect fill="#E2E2F0" height="46.1973" rx="2.5" ry="2.5" style="stroke:#181818;stroke-width:0.5;" width="65.3379" x="595.5098" y="42.0986"/><text fill="#000000" font-family="sans-serif" font-size="14" lengthAdjust="spacing" textLength="49.793" x="603.2822" y="62.2305">Material</text><text fill="#000000" font-family="sans-serif" font-size="14" lengthAdjust="spacing" textLength="51.3379" x="602.5098" y="78.3291">Box HW</text></g><g class="participant participant-tail" data-participant="HW"><rect fill="#E2E2F0" height="46.1973" rx="2.5" ry="2.5" style="stroke:#181818;stroke-width:0.5;" width="65.3379" x="595.5098" y="1316.8428"/><text fill="#000000" font-family="sans-serif" font-size="14" lengthAdjust="spacing" textLength="49.793" x="603.2822" y="1336.9746">Material</text><text fill="#000000" font-family="sans-serif" font-size="14" lengthAdjust="spacing" textLength="51.3379" x="602.5098" y="1353.0732">Box HW</text></g><g class="participant participant-head" data-participant="Rack"><rect fill="#E2E2F0" height="30.0986" rx="2.5" ry="2.5" style="stroke:#181818;stroke-width:0.5;" width="97.2549" x="670.8477" y="58.1973"/><text fill="#000000" font-family="sans-serif" font-size="14" lengthAdjust="spacing" textLength="83.2549" x="677.8477" y="78.3291">filament_rack</text></g><g class="participant participant-tail" data-participant="Rack"><rect fill="#E2E2F0" height="30.0986" rx="2.5" ry="2.5" style="stroke:#181818;stroke-width:0.5;" width="97.2549" x="670.8477" y="1316.8428"/><text fill="#000000" font-family="sans-serif" font-size="14" lengthAdjust="spacing" textLength="83.2549" x="677.8477" y="1336.9746">filament_rack</text></g><rect fill="#EEEEEE" height="3" style="stroke:#EEEEEE;stroke-width:1;" width="869.2725" x="0" y="119.7703"/><line style="stroke:#000000;stroke-width:1;" x1="0" x2="869.2725" y1="119.7703" y2="119.7703"/><line style="stroke:#000000;stroke-width:1;" x1="0" x2="869.2725" y1="122.7703" y2="122.7703"/><rect fill="#EEEEEE" height="22.9487" style="stroke:#000000;stroke-width:2;" width="171.8408" x="348.7158" y="109.2959"/><text fill="#000000" font-family="sans-serif" font-size="13" font-weight="bold" lengthAdjust="spacing" textLength="154.229" x="354.7158" y="125.4897">Initialization (0s to ~4.4s)</text><g class="message" data-participant-1="GCode" data-participant-2="Box"><polygon fill="#181818" points="141.5527,159.1934,151.5527,163.1934,141.5527,167.1934,145.5527,163.1934" style="stroke:#181818;stroke-width:1;"/><line style="stroke:#181818;stroke-width:1;" x1="34.1792" x2="147.5527" y1="163.1934" y2="163.1934"/><text fill="#000000" font-family="sans-serif" font-size="13" lengthAdjust="spacing" textLength="95.3735" x="41.1792" y="158.4385">T1A (load slot 1)</text></g><g class="message" data-participant-1="Box" data-participant-2="Serial"><polygon fill="#181818" points="442.9771,188.1421,452.9771,192.1421,442.9771,196.1421,446.9771,192.1421" style="stroke:#181818;stroke-width:1;"/><line style="stroke:#181818;stroke-width:1;" x1="153.5527" x2="448.9771" y1="192.1421" y2="192.1421"/><text fill="#000000" font-family="sans-serif" font-size="13" lengthAdjust="spacing" textLength="163.2871" x="160.5527" y="187.3872">cmd_send(FF10 01 00) INIT</text></g><g class="message" data-participant-1="Serial" data-participant-2="HW"><polygon fill="#181818" points="616.1787,217.0908,626.1787,221.0908,616.1787,225.0908,620.1787,221.0908" style="stroke:#181818;stroke-width:1;"/><line style="stroke:#181818;stroke-width:1;" x1="454.9771" x2="622.1787" y1="221.0908" y2="221.0908"/><text fill="#000000" font-family="sans-serif" font-size="13" lengthAdjust="spacing" textLength="80.9199" x="461.9771" y="216.3359">RS-485 frame</text></g><path d="M633,234.0908 L633,273.0908 L864,273.0908 L864,244.0908 L854,234.0908 L633,234.0908" fill="#FFFFE0" style="stroke:#181818;stroke-width:0.5;"/><path d="M854,234.0908 L854,244.0908 L864,244.0908 L854,234.0908" fill="#FFFFE0" style="stroke:#181818;stroke-width:0.5;"/><text fill="#000000" font-family="sans-serif" font-size="13" font-weight="bold" lengthAdjust="spacing" textLength="69.3291" x="639" y="251.2847">BLOCKING</text><text fill="#000000" font-family="sans-serif" font-size="13" lengthAdjust="spacing" textLength="123.9126" x="708.3291" y="251.2847">: Motor runs for ~4.4s</text><text fill="#000000" font-family="sans-serif" font-size="13" lengthAdjust="spacing" textLength="210.2725" x="639" y="266.2334">Feeds filament until sensor triggered</text><g class="message" data-participant-1="HW" data-participant-2="Serial"><polygon fill="#181818" points="465.9771,295.937,455.9771,299.937,465.9771,303.937,461.9771,299.937" style="stroke:#181818;stroke-width:1;"/><line style="stroke:#181818;stroke-width:1;stroke-dasharray:2,2;" x1="459.9771" x2="627.1787" y1="299.937" y2="299.937"/><text fill="#000000" font-family="sans-serif" font-size="13" lengthAdjust="spacing" textLength="135.1162" x="471.9771" y="295.1821">status=OK (after ~4.4s)</text></g><g class="message" data-participant-1="Serial" data-participant-2="Box"><polygon fill="#181818" points="164.5527,324.8857,154.5527,328.8857,164.5527,332.8857,160.5527,328.8857" style="stroke:#181818;stroke-width:1;"/><line style="stroke:#181818;stroke-width:1;stroke-dasharray:2,2;" x1="158.5527" x2="453.9771" y1="328.8857" y2="328.8857"/><text fill="#000000" font-family="sans-serif" font-size="13" lengthAdjust="spacing" textLength="53.479" x="170.5527" y="324.1309">response</text></g><rect fill="#EEEEEE" height="3" style="stroke:#EEEEEE;stroke-width:1;" width="869.2725" x="0" y="357.3601"/><line style="stroke:#000000;stroke-width:1;" x1="0" x2="869.2725" y1="357.3601" y2="357.3601"/><line style="stroke:#000000;stroke-width:1;" x1="0" x2="869.2725" y1="360.3601" y2="360.3601"/><rect fill="#EEEEEE" height="22.9487" style="stroke:#000000;stroke-width:2;" width="219.5244" x="324.874" y="346.8857"/><text fill="#000000" font-family="sans-serif" font-size="13" font-weight="bold" lengthAdjust="spacing" textLength="201.9126" x="330.874" y="363.0796">Sensor Detection (~4.4s, instant)</text><g class="message" data-participant-1="Box" data-participant-2="Serial"><polygon fill="#181818" points="442.9771,396.7832,452.9771,400.7832,442.9771,404.7832,446.9771,400.7832" style="stroke:#181818;stroke-width:1;"/><line style="stroke:#181818;stroke-width:1;" x1="153.5527" x2="448.9771" y1="400.7832" y2="400.7832"/><text fill="#000000" font-family="sans-serif" font-size="13" lengthAdjust="spacing" textLength="270.9243" x="160.5527" y="396.0283">cmd_send(FF10 01 04) SENSOR_DETECTED</text></g><g class="message" data-participant-1="Serial" data-participant-2="HW"><polygon fill="#181818" points="616.1787,425.7319,626.1787,429.7319,616.1787,433.7319,620.1787,429.7319" style="stroke:#181818;stroke-width:1;"/><line style="stroke:#181818;stroke-width:1;" x1="454.9771" x2="622.1787" y1="429.7319" y2="429.7319"/><text fill="#000000" font-family="sans-serif" font-size="13" lengthAdjust="spacing" textLength="80.9199" x="461.9771" y="424.9771">RS-485 frame</text></g><g class="message" data-participant-1="HW" data-participant-2="Serial"><polygon fill="#181818" points="465.9771,454.6807,455.9771,458.6807,465.9771,462.6807,461.9771,458.6807" style="stroke:#181818;stroke-width:1;"/><line style="stroke:#181818;stroke-width:1;stroke-dasharray:2,2;" x1="459.9771" x2="627.1787" y1="458.6807" y2="458.6807"/><text fill="#000000" font-family="sans-serif" font-size="13" lengthAdjust="spacing" textLength="78.3809" x="471.9771" y="453.9258">ACK (~68ms)</text></g><path d="M633,471.6807 L633,510.6807 L767,510.6807 L767,481.6807 L757,471.6807 L633,471.6807" fill="#FEFFDD" style="stroke:#181818;stroke-width:0.5;"/><path d="M757,471.6807 L757,481.6807 L767,481.6807 L757,471.6807" fill="#FEFFDD" style="stroke:#181818;stroke-width:0.5;"/><text fill="#000000" font-family="sans-serif" font-size="13" lengthAdjust="spacing" textLength="101.1563" x="639" y="488.8745">Confirmation only</text><text fill="#000000" font-family="sans-serif" font-size="13" lengthAdjust="spacing" textLength="113.4453" x="639" y="503.8232">(not a waiting state)</text><rect fill="#EEEEEE" height="3" style="stroke:#EEEEEE;stroke-width:1;" width="869.2725" x="0" y="537.0525"/><line style="stroke:#000000;stroke-width:1;" x1="0" x2="869.2725" y1="537.0525" y2="537.0525"/><line style="stroke:#000000;stroke-width:1;" x1="0" x2="869.2725" y1="540.0525" y2="540.0525"/><rect fill="#EEEEEE" height="22.9487" style="stroke:#000000;stroke-width:2;" width="225.688" x="321.7922" y="526.5781"/><text fill="#000000" font-family="sans-serif" font-size="13" font-weight="bold" lengthAdjust="spacing" textLength="208.0762" x="327.7922" y="542.772">Feed to Extruder (~4.5s to ~15.9s)</text><path d="M94.9321,566.5269 L167.3667,566.5269 L167.3667,573.4756 L157.3667,583.4756 L94.9321,583.4756 L94.9321,566.5269" fill="#EEEEEE" style="stroke:#000000;stroke-width:1.5;"/><rect fill="none" height="228.2388" style="stroke:#000000;stroke-width:1.5;" width="671.5469" x="94.9321" y="566.5269"/><text fill="#000000" font-family="sans-serif" font-size="13" font-weight="bold" lengthAdjust="spacing" textLength="27.4346" x="109.9321" y="579.7207">loop</text><text fill="#000000" font-family="sans-serif" font-size="11" font-weight="bold" lengthAdjust="spacing" textLength="158.9038" x="182.3667" y="578.8447">[Poll until filament at extruder]</text><g class="message" data-participant-1="Box" data-participant-2="Serial"><polygon fill="#181818" points="442.9771,600.4243,452.9771,604.4243,442.9771,608.4243,446.9771,604.4243" style="stroke:#181818;stroke-width:1;"/><line style="stroke:#181818;stroke-width:1;" x1="153.5527" x2="448.9771" y1="604.4243" y2="604.4243"/><text fill="#000000" font-family="sans-serif" font-size="13" lengthAdjust="spacing" textLength="277.4243" x="160.5527" y="599.6694">cmd_send(FF10 01 05) FEED_TO_EXTRUDER</text></g><g class="message" data-participant-1="Serial" data-participant-2="HW"><polygon fill="#181818" points="616.1787,629.373,626.1787,633.373,616.1787,637.373,620.1787,633.373" style="stroke:#181818;stroke-width:1;"/><line style="stroke:#181818;stroke-width:1;" x1="454.9771" x2="622.1787" y1="633.373" y2="633.373"/><text fill="#000000" font-family="sans-serif" font-size="13" lengthAdjust="spacing" textLength="80.9199" x="461.9771" y="628.6182">RS-485 frame</text></g><path d="M405.6772,648.373 L465.8481,648.373 L465.8481,655.3218 L455.8481,665.3218 L405.6772,665.3218 L405.6772,648.373" fill="#EEEEEE" style="stroke:#000000;stroke-width:1.5;"/><rect fill="none" height="139.3926" style="stroke:#000000;stroke-width:1.5;" width="350.8018" x="405.6772" y="648.373"/><text fill="#000000" font-family="sans-serif" font-size="13" font-weight="bold" lengthAdjust="spacing" textLength="15.1709" x="420.6772" y="661.5669">alt</text><text fill="#000000" font-family="sans-serif" font-size="11" font-weight="bold" lengthAdjust="spacing" textLength="67.8477" x="480.8481" y="660.6909">[In Progress]</text><g class="message" data-participant-1="HW" data-participant-2="Serial"><polygon fill="#181818" points="465.9771,682.2705,455.9771,686.2705,465.9771,690.2705,461.9771,686.2705" style="stroke:#181818;stroke-width:1;"/><line style="stroke:#181818;stroke-width:1;stroke-dasharray:2,2;" x1="459.9771" x2="627.1787" y1="686.2705" y2="686.2705"/><text fill="#000000" font-family="sans-serif" font-size="13" lengthAdjust="spacing" textLength="149.2017" x="471.9771" y="681.5156">status=0x0C (in progress)</text></g><path d="M633,699.2705 L633,738.2705 L746,738.2705 L746,709.2705 L736,699.2705 L633,699.2705" fill="#FEFFDD" style="stroke:#181818;stroke-width:0.5;"/><path d="M736,699.2705 L736,709.2705 L746,709.2705 L736,699.2705" fill="#FEFFDD" style="stroke:#181818;stroke-width:0.5;"/><text fill="#000000" font-family="sans-serif" font-size="13" lengthAdjust="spacing" textLength="82.3799" x="639" y="716.4644">Motor pushing</text><text fill="#000000" font-family="sans-serif" font-size="13" lengthAdjust="spacing" textLength="92.479" x="639" y="731.4131">filament forward</text><line style="stroke:#000000;stroke-width:1;stroke-dasharray:2,2;" x1="405.6772" x2="756.479" y1="745.168" y2="745.168"/><text fill="#000000" font-family="sans-serif" font-size="11" font-weight="bold" lengthAdjust="spacing" textLength="34.8262" x="410.6772" y="755.4858">[Done]</text><g class="message" data-participant-1="HW" data-participant-2="Serial"><polygon fill="#181818" points="465.9771,775.7656,455.9771,779.7656,465.9771,783.7656,461.9771,779.7656" style="stroke:#181818;stroke-width:1;"/><line style="stroke:#181818;stroke-width:1;stroke-dasharray:2,2;" x1="459.9771" x2="627.1787" y1="779.7656" y2="779.7656"/><text fill="#000000" font-family="sans-serif" font-size="13" lengthAdjust="spacing" textLength="61.0581" x="471.9771" y="775.0107">status=OK</text></g><rect fill="#EEEEEE" height="3" style="stroke:#EEEEEE;stroke-width:1;" width="869.2725" x="0" y="822.24"/><line style="stroke:#000000;stroke-width:1;" x1="0" x2="869.2725" y1="822.24" y2="822.24"/><line style="stroke:#000000;stroke-width:1;" x1="0" x2="869.2725" y1="825.24" y2="825.24"/><rect fill="#EEEEEE" height="22.9487" style="stroke:#000000;stroke-width:2;" width="342.377" x="263.4478" y="811.7656"/><text fill="#000000" font-family="sans-serif" font-size="13" font-weight="bold" lengthAdjust="spacing" textLength="324.7651" x="269.4478" y="827.9595">Flush/Purge Phase (~15.9s to ~20.6s, duration ~4.7s)</text><g class="message" data-participant-1="Box" data-participant-2="Serial"><polygon fill="#181818" points="442.9771,861.6631,452.9771,865.6631,442.9771,869.6631,446.9771,865.6631" style="stroke:#181818;stroke-width:1;"/><line style="stroke:#181818;stroke-width:1;" x1="153.5527" x2="448.9771" y1="865.6631" y2="865.6631"/><text fill="#000000" font-family="sans-serif" font-size="13" lengthAdjust="spacing" textLength="181.3525" x="160.5527" y="860.9082">cmd_send(FF10 01 06) FLUSH</text></g><g class="message" data-participant-1="Serial" data-participant-2="HW"><polygon fill="#181818" points="616.1787,890.6118,626.1787,894.6118,616.1787,898.6118,620.1787,894.6118" style="stroke:#181818;stroke-width:1;"/><line style="stroke:#181818;stroke-width:1;" x1="454.9771" x2="622.1787" y1="894.6118" y2="894.6118"/><text fill="#000000" font-family="sans-serif" font-size="13" lengthAdjust="spacing" textLength="80.9199" x="461.9771" y="889.8569">RS-485 frame</text></g><g class="message" data-participant-1="HW" data-participant-2="Serial"><polygon fill="#181818" points="465.9771,919.5605,455.9771,923.5605,465.9771,927.5605,461.9771,923.5605" style="stroke:#181818;stroke-width:1;"/><line style="stroke:#181818;stroke-width:1;stroke-dasharray:2,2;" x1="459.9771" x2="627.1787" y1="923.5605" y2="923.5605"/><text fill="#000000" font-family="sans-serif" font-size="13" lengthAdjust="spacing" textLength="61.0581" x="471.9771" y="918.8057">status=OK</text></g><path d="M633,936.5605 L633,975.5605 L741,975.5605 L741,946.5605 L731,936.5605 L633,936.5605" fill="#FEFFDD" style="stroke:#181818;stroke-width:0.5;"/><path d="M731,936.5605 L731,946.5605 L741,946.5605 L731,936.5605" fill="#FEFFDD" style="stroke:#181818;stroke-width:0.5;"/><text fill="#000000" font-family="sans-serif" font-size="13" lengthAdjust="spacing" textLength="87.439" x="639" y="953.7544">Purge old color</text><text fill="#000000" font-family="sans-serif" font-size="13" lengthAdjust="spacing" textLength="67.1899" x="639" y="968.7031">from nozzle</text><g class="message" data-participant-1="Rack" data-participant-2="Rack"><line style="stroke:#181818;stroke-width:1;" x1="719.4751" x2="761.4751" y1="1002.4067" y2="1002.4067"/><line style="stroke:#181818;stroke-width:1;" x1="761.4751" x2="761.4751" y1="1002.4067" y2="1015.4067"/><line style="stroke:#181818;stroke-width:1;" x1="720.4751" x2="761.4751" y1="1015.4067" y2="1015.4067"/><polygon fill="#181818" points="730.4751,1011.4067,720.4751,1015.4067,730.4751,1019.4067,726.4751,1015.4067" style="stroke:#181818;stroke-width:1;"/><text fill="#000000" font-family="sans-serif" font-size="13" lengthAdjust="spacing" textLength="118.8472" x="726.4751" y="997.6519">velocity=450mm/min</text></g><rect fill="#EEEEEE" height="3" style="stroke:#EEEEEE;stroke-width:1;" width="869.2725" x="0" y="1043.8811"/><line style="stroke:#000000;stroke-width:1;" x1="0" x2="869.2725" y1="1043.8811" y2="1043.8811"/><line style="stroke:#000000;stroke-width:1;" x1="0" x2="869.2725" y1="1046.8811" y2="1046.8811"/><rect fill="#EEEEEE" height="22.9487" style="stroke:#000000;stroke-width:2;" width="236.8408" x="316.2158" y="1033.4067"/><text fill="#000000" font-family="sans-serif" font-size="13" font-weight="bold" lengthAdjust="spacing" textLength="219.229" x="322.2158" y="1049.6006">Completion (~20.6s, total load time)</text><path d="M115,1071.3555 L115,1155.3555 L665,1155.3555 L665,1081.3555 L655,1071.3555 L115,1071.3555" fill="#FEFFDD" style="stroke:#181818;stroke-width:0.5;"/><path d="M655,1071.3555 L655,1081.3555 L665,1081.3555 L655,1071.3555" fill="#FEFFDD" style="stroke:#181818;stroke-width:0.5;"/><text fill="#000000" font-family="sans-serif" font-size="13" font-weight="bold" lengthAdjust="spacing" textLength="36.1118" x="220.4839" y="1088.5493">NOTE</text><text fill="#000000" font-family="sans-serif" font-size="13" lengthAdjust="spacing" textLength="280.1602" x="256.5957" y="1088.5493">: Despite being called "COMPLETE", this is NOT</text><text fill="#000000" font-family="sans-serif" font-size="13" lengthAdjust="spacing" textLength="276.0151" x="220.4839" y="1103.498">a polling loop. Status is always OK immediately.</text><text fill="#000000" font-family="sans-serif" font-size="13" lengthAdjust="spacing" textLength="330.9478" x="220.4839" y="1118.4468">The 4x repetition appears to be for confirmation/reliability,</text><text fill="#000000" font-family="sans-serif" font-size="13" lengthAdjust="spacing" textLength="313.6123" x="220.4839" y="1133.3955">not waiting for completion. Actual polling occurs during</text><text fill="#000000" font-family="sans-serif" font-size="13" lengthAdjust="spacing" textLength="326.2188" x="220.4839" y="1148.3442">FEED_TO_EXTRUDER phase (status=0x0C until done).</text><path d="M94.9321,1168.0991 L167.3667,1168.0991 L167.3667,1175.0479 L157.3667,1185.0479 L94.9321,1185.0479 L94.9321,1168.0991" fill="#EEEEEE" style="stroke:#000000;stroke-width:1.5;"/><rect fill="none" height="103.7949" style="stroke:#000000;stroke-width:1.5;" width="575.9155" x="94.9321" y="1168.0991"/><text fill="#000000" font-family="sans-serif" font-size="13" font-weight="bold" lengthAdjust="spacing" textLength="27.4346" x="109.9321" y="1181.293">loop</text><text fill="#000000" font-family="sans-serif" font-size="11" font-weight="bold" lengthAdjust="spacing" textLength="133.8315" x="182.3667" y="1180.417">[Confirm completion (4x)]</text><g class="message" data-participant-1="Box" data-participant-2="Serial"><polygon fill="#181818" points="442.9771,1201.9966,452.9771,1205.9966,442.9771,1209.9966,446.9771,1205.9966" style="stroke:#181818;stroke-width:1;"/><line style="stroke:#181818;stroke-width:1;" x1="153.5527" x2="448.9771" y1="1205.9966" y2="1205.9966"/><text fill="#000000" font-family="sans-serif" font-size="13" lengthAdjust="spacing" textLength="228.3188" x="160.5527" y="1201.2417">cmd_send(FF10 01 07 03) COMPLETE</text></g><g class="message" data-participant-1="Serial" data-participant-2="HW"><polygon fill="#181818" points="616.1787,1230.9453,626.1787,1234.9453,616.1787,1238.9453,620.1787,1234.9453" style="stroke:#181818;stroke-width:1;"/><line style="stroke:#181818;stroke-width:1;" x1="454.9771" x2="622.1787" y1="1234.9453" y2="1234.9453"/><text fill="#000000" font-family="sans-serif" font-size="13" lengthAdjust="spacing" textLength="80.9199" x="461.9771" y="1230.1904">RS-485 frame</text></g><g class="message" data-participant-1="HW" data-participant-2="Serial"><polygon fill="#181818" points="465.9771,1259.894,455.9771,1263.894,465.9771,1267.894,461.9771,1263.894" style="stroke:#181818;stroke-width:1;"/><line style="stroke:#181818;stroke-width:1;stroke-dasharray:2,2;" x1="459.9771" x2="627.1787" y1="1263.894" y2="1263.894"/><text fill="#000000" font-family="sans-serif" font-size="13" lengthAdjust="spacing" textLength="113.0645" x="471.9771" y="1259.1392">status=OK (always)</text></g><g class="message" data-participant-1="Box" data-participant-2="GCode"><polygon fill="#181818" points="45.1792,1295.8428,35.1792,1299.8428,45.1792,1303.8428,41.1792,1299.8428" style="stroke:#181818;stroke-width:1;"/><line style="stroke:#181818;stroke-width:1;stroke-dasharray:2,2;" x1="39.1792" x2="152.5527" y1="1299.8428" y2="1299.8428"/><text fill="#000000" font-family="sans-serif" font-size="13" lengthAdjust="spacing" textLength="85.2808" x="51.1792" y="1295.0879">Load complete</text></g><!--SRC=[bLLXR-8u4FsUNp7gVY5LIyCTTFUGEAaBOLkL5WIiUYTLGYOPm5h7pjfEI_jXV_kExS2stLFR0oII-CtupPitZkLM80ovO0LA2oF5SfZXzmfbXj0O3bj979blN9PCimAMBFksrggIULy9fU73C7NVAA9bopDUCifnyAMlShoLLopJwW2O0V_WEMQfjhUoSSKiQix4PxMDFP8kdkECNr-qFtNy-ipVFeViajnAYeRp6myyltaEMjKLBZILu15JkeYYNWyk9BSKpX-PvKf28p5W5VneDzicXbulykpX-6z7hWlprXaqX9F926MX5KTkLreDrBgG5Vd2eCozU92q84bYkBY-c4S1uR3dDrsOpewfAbYHhXX9PH4qNsyig1KjmuUHk_aNXL3t4S3XuUVHk7zvSVtbyB0BLygI-BgI1bPquQaIQ8YOqvDTBojfkG2YOWXZAVaQDUOHKGEtNKIx73_XRIopbUcDBw71LgHehS2UzKu0ZQPKqg3NRXQo3z1Y5jJpKKV09UMJrWlufa3j66RfzMmyNGpIUTgVfuFNj7h1-wnFZ7-SVYg8wqiPkz1NSiLr4Lghf7WWrn4A6DmpQhjS-xenzjKu0LtlqwtLLKuIk6ewmGwjJlElu0UXL0aJ9KIjy5vmPW7hIEe6m9jrTs8OfkbWCHylqd_cqw-3TEe3NodUBJDXoRGmqMfDpJ3-cVlyTqEJRTA71fTGrlXu7_2xNC5PPMKs9Csjt9T6DhjdElUHA0p2G4byO-FnPO1BxxaWiA3C9vDAhn4c6qPv6a5OB_4VIVEKh9DNEhIBnFzetkUWKr9oz7Ls_Zzyyulbxp84XahaaBbpZeJGgY2v7Xy5HkxWS1ku_oxSeL0Pjm-zTYSfYfE2IrzfNnMbm7eawiAiiaJDdnsM5-WhytkhE_8QrNZaZYqtxDVZUUe6VK2pnWcmHEVKZ0b11ZteZwyc8ngK0qgvuGReHm4KoA0aMpgeysWJPhv4jyx4FNimGCFDYm9pJfON3qqAcMyGsbiQwfB8UhgiB95ftv4b-lCbUp939ne5PqikgEIZo5jeFqa1kwkx2MUPhQZW7IULPHNbfVRIdJkkNbWVok28fxuD4vQJsUBchvChZ60zsa-sX4Px6xzlz3v2ycSCEoNVCtMl79TUt3YutEzCEF_Mw8ONQiqGevy0]--></g></svg>