<svg xmlns="http://www.w3.org/2000/svg" xmlns:xlink="http://www.w3.org/1999/xlink" contentStyleType="text/css" data-diagram-type="TIMING" height="440px" preserveAspectRatio="none" style="width:4435px;height:440px;background:#FEFEFE;" version="1.1" viewBox="0 0 4435 440" width="4435px" zoomAndPan="magnify"><title>Load Timing Diagram (T1A actual data)</title><defs/><g><rect fill="#FEFEFE" height="440" style="stroke:none;stroke-width:1;" width="4435" x="0" y="0"/><g class="title" data-source-line="1"><text fill="#000000" font-family="sans-serif" font-size="14" font-weight="bold" lengthAdjust="spacing" textLength="259.8135" x="1954.0405" y="33.1318">Load Timing Diagram (T1A actual data)</text></g><line style="stroke:#333333;stroke-width:0.5;" x1="10" x2="10" y1="47.0986" y2="410.3394"/><line style="stroke:#333333;stroke-width:0.5;" x1="4158.8945" x2="4158.8945" y1="47.0986" y2="410.3394"/><line style="stroke:#333333;stroke-width:0.5;stroke-dasharray:3,5;" x1="127.0605" x2="127.0605" y1="47.0986" y2="410.3394"/><line style="stroke:#333333;stroke-width:0.5;stroke-dasharray:3,5;" x1="177.0605" x2="177.0605" y1="47.0986" y2="410.3394"/><line style="stroke:#333333;stroke-width:0.5;stroke-dasharray:3,5;" x1="227.0605" x2="227.0605" y1="47.0986" y2="410.3394"/><line style="stroke:#333333;stroke-width:0.5;stroke-dasharray:3,5;" x1="277.0605" x2="277.0605" y1="47.0986" y2="410.3394"/><line style="stroke:#333333;stroke-width:0.5;stroke-dasharray:3,5;" x1="327.0605" x2="327.0605" y1="47.0986" y2="410.3394"/><line style="stroke:#333333;stroke-width:0.5;stroke-dasharray:3,5;" x1="377.0605" x2="377.0605" y1="47.0986" y2="410.3394"/><line style="stroke:#333333;stroke-width:0.5;stroke-dasharray:3,5;" x1="427.0605" x2="427.0605" y1="47.0986" y2="410.3394"/><line style="stroke:#333333;stroke-width:0.5;stroke-dasharray:3,5;" x1="477.0605" x2="477.0605" y1="47.0986" y2="410.3394"/><line style="stroke:#333333;stroke-width:0.5;stroke-dasharray:3,5;" x1="527.0605" x2="527.0605" y1="47.0986" y2="410.3394"/><line style="stroke:#333333;stroke-width:0.5;stroke-dasharray:3,5;" x1="577.0605" x2="577.0605" y1="47.0986" y2="410.3394"/><line style="stroke:#333333;stroke-width:0.5;stroke-dasharray:3,5;" x1="627.0605" x2="627.0605" y1="47.0986" y2="410.3394"/><line style="stroke:#333333;stroke-width:0.5;stroke-dasharray:3,5;" x1="677.0605" x2="677.0605" y1="47.0986" y2="410.3394"/><line style="stroke:#333333;stroke-width:0.5;stroke-dasharray:3,5;" x1="727.0605" x2="727.0605" y1="47.0986" y2="410.3394"/><line style="stroke:#333333;stroke-width:0.5;stroke-dasharray:3,5;" x1="777.0605" x2="777.0605" y1="47.0986" y2="410.3394"/><line style="stroke:#333333;stroke-width:0.5;stroke-dasharray:3,5;" x1="827.0605" x2="827.0605" y1="47.0986" y2="410.3394"/><line style="stroke:#333333;stroke-width:0.5;stroke-dasharray:3,5;" x1="877.0605" x2="877.0605" y1="47.0986" y2="410.3394"/><line style="stroke:#333333;stroke-width:0.5;stroke-dasharray:3,5;" x1="927.0605" x2="927.0605" y1="47.0986" y2="410.3394"/><line style="stroke:#333333;stroke-width:0.5;stroke-dasharray:3,5;" x1="977.0605" x2="977.0605" y1="47.0986" y2="410.3394"/><line style="stroke:#333333;stroke-width:0.5;stroke-dasharray:3,5;" x1="1027.0605" x2="1027.0605" y1="47.0986" y2="410.3394"/><line style="stroke:#333333;stroke-width:0.5;stroke-dasharray:3,5;" x1="1077.0605" x2="1077.0605" y1="47.0986" y2="410.3394"/><line style="stroke:#333333;stroke-width:0.5;stroke-dasharray:3,5;" x1="1127.0605" x2="1127.0605" y1="47.0986" y2="410.3394"/><line style="stroke:#333333;stroke-width:0.5;stroke-dasharray:3,5;" x1="1177.0605" x2="1177.0605" y1="47.0986" y2="410.3394"/><line style="stroke:#333333;stroke-width:0.5;stroke-dasharray:3,5;" x1="1227.0605" x2="1227.0605" y1="47.0986" y2="410.3394"/><line style="stroke:#333333;stroke-width:0.5;stroke-dasharray:3,5;" x1="1277.0605" x2="1277.0605" y1="47.0986" y2="410.3394"/><line style="stroke:#333333;stroke-width:0.5;stroke-dasharray:3,5;" x1="1327.0605" x2="1327.0605" y1="47.0986" y2="410.3394"/><line style="stroke:#333333;stroke-width:0.5;stroke-dasharray:3,5;" x1="1377.0605" x2="1377.0605" y1="47.0986" y2="410.3394"/><line style="stroke:#333333;stroke-width:0.5;stroke-dasharray:3,5;" x1="1427.0605" x2="1427.0605" y1="47.0986" y2="410.3394"/><line style="stroke:#333333;stroke-width:0.5;stroke-dasharray:3,5;" x1="1477.0605" x2="1477.0605" y1="47.0986" y2="410.3394"/><line style="stroke:#333333;stroke-width:0.5;stroke-dasharray:3,5;" x1="1527.0605" x2="1527.0605" y1="47.0986" y2="410.3394"/><line style="stroke:#333333;stroke-width:0.5;stroke-dasharray:3,5;" x1="1577.0605" x2="1577.0605" y1="47.0986" y2="410.3394"/><line style="stroke:#333333;stroke-width:0.5;stroke-dasharray:3,5;" x1="1627.0605" x2="1627.0605" y1="47.0986" y2="410.3394"/><line style="stroke:#333333;stroke-width:0.5;stroke-dasharray:3,5;" x1="1677.0605" x2="1677.0605" y1="47.0986" y2="410.3394"/><line style="stroke:#333333;stroke-width:0.5;stroke-dasharray:3,5;" x1="1727.0605" x2="1727.0605" y1="47.0986" y2="410.3394"/><line style="stroke:#333333;stroke-width:0.5;stroke-dasharray:3,5;" x1="1777.0605" x2="1777.0605" y1="47.0986" y2="410.3394"/><line style="stroke:#333333;stroke-width:0.5;stroke-dasharray:3,5;" x1="1827.0605" x2="1827.0605" y1="47.0986" y2="410.3394"/><line style="stroke:#333333;stroke-width:0.5;stroke-dasharray:3,5;" x1="1877.0605" x2="1877.0605" y1="47.0986" y2="410.3394"/><line style="stroke:#333333;stroke-width:0.5;stroke-dasharray:3,5;" x1="1927.0605" x2="1927.0605" y1="47.0986" y2="410.3394"/><line style="stroke:#333333;stroke-width:0.5;stroke-dasharray:3,5;" x1="1977.0605" x2="1977.0605" y1="47.0986" y2="410.3394"/><line style="stroke:#333333;stroke-width:0.5;stroke-dasharray:3,5;" x1="2027.0605" x2="2027.0605" y1="47.0986" y2="410.3394"/><line style="stroke:#333333;stroke-width:0.5;stroke-dasharray:3,5;" x1="2077.0605" x2="2077.0605" y1="47.0986" y2="410.3394"/><line style="stroke:#333333;stroke-width:0.5;stroke-dasharray:3,5;" x1="2127.0605" x2="2127.0605" y1="47.0986" y2="410.3394"/><line style="stroke:#333333;stroke-width:0.5;stroke-dasharray:3,5;" x1="2177.0605" x2="2177.0605" y1="47.0986" y2="410.3394"/><line style="stroke:#333333;stroke-width:0.5;stroke-dasharray:3,5;" x1="2227.0605" x2="2227.0605" y1="47.0986" y2="410.3394"/><line style="stroke:#333333;stroke-width:0.5;stroke-dasharray:3,5;" x1="2277.0605" x2="2277.0605" y1="47.0986" y2="410.3394"/><line style="stroke:#333333;stroke-width:0.5;stroke-dasharray:3,5;" x1="2327.0605" x2="2327.0605" y1="47.0986" y2="410.3394"/><line style="stroke:#333333;stroke-width:0.5;stroke-dasharray:3,5;" x1="2377.0605" x2="2377.0605" y1="47.0986" y2="410.3394"/><line style="stroke:#333333;stroke-width:0.5;stroke-dasharray:3,5;" x1="2427.0605" x2="2427.0605" y1="47.0986" y2="410.3394"/><line style="stroke:#333333;stroke-width:0.5;stroke-dasharray:3,5;" x1="2477.0605" x2="2477.0605" y1="47.0986" y2="410.3394"/><line style="stroke:#333333;stroke-width:0.5;stroke-dasharray:3,5;" x1="2527.0605" x2="2527.0605" y1="47.0986" y2="410.3394"/><line style="stroke:#333333;stroke-width:0.5;stroke-dasharray:3,5;" x1="2577.0605" x2="2577.0605" y1="47.0986" y2="410.3394"/><line style="stroke:#333333;stroke-width:0.5;stroke-dasharray:3,5;" x1="2627.0605" x2="2627.0605" y1="47.0986" y2="410.3394"/><line style="stroke:#333333;stroke-width:0.5;stroke-dasharray:3,5;" x1="2677.0605" x2="2677.0605" y1="47.0986" y2="410.3394"/><line style="stroke:#333333;stroke-width:0.5;stroke-dasharray:3,5;" x1="2727.0605" x2="2727.0605" y1="47.0986" y2="410.3394"/><line style="stroke:#333333;stroke-width:0.5;stroke-dasharray:3,5;" x1="2777.0605" x2="2777.0605" y1="47.0986" y2="410.3394"/><line style="stroke:#333333;stroke-width:0.5;stroke-dasharray:3,5;" x1="2827.0605" x2="2827.0605" y1="47.0986" y2="410.3394"/><line style="stroke:#333333;stroke-width:0.5;stroke-dasharray:3,5;" x1="2877.0605" x2="2877.0605" y1="47.0986" y2="410.3394"/><line style="stroke:#333333;stroke-width:0.5;stroke-dasharray:3,5;" x1="2927.0605" x2="2927.0605" y1="47.0986" y2="410.3394"/><line style="stroke:#333333;stroke-width:0.5;stroke-dasharray:3,5;" x1="2977.0605" x2="2977.0605" y1="47.0986" y2="410.3394"/><line style="stroke:#333333;stroke-width:0.5;stroke-dasharray:3,5;" x1="3027.0605" x2="3027.0605" y1="47.0986" y2="410.3394"/><line style="stroke:#333333;stroke-width:0.5;stroke-dasharray:3,5;" x1="3077.0605" x2="3077.0605" y1="47.0986" y2="410.3394"/><line style="stroke:#333333;stroke-width:0.5;stroke-dasharray:3,5;" x1="3127.0605" x2="3127.0605" y1="47.0986" y2="410.3394"/><line style="stroke:#333333;stroke-width:0.5;stroke-dasharray:3,5;" x1="3177.0605" x2="3177.0605" y1="47.0986" y2="410.3394"/><line style="stroke:#333333;stroke-width:0.5;stroke-dasharray:3,5;" x1="3227.0605" x2="3227.0605" y1="47.0986" y2="410.3394"/><line style="stroke:#333333;stroke-width:0.5;stroke-dasharray:3,5;" x1="3277.0605" x2="3277.0605" y1="47.0986" y2="410.3394"/><line style="stroke:#333333;stroke-width:0.5;stroke-dasharray:3,5;" x1="3327.0605" x2="3327.0605" y1="47.0986" y2="410.3394"/><line style="stroke:#333333;stroke-width:0.5;stroke-dasharray:3,5;" x1="3377.0605" x2="3377.0605" y1="47.0986" y2="410.3394"/><line style="stroke:#333333;stroke-width:0.5;stroke-dasharray:3,5;" x1="3427.0605" x2="3427.0605" y1="47.0986" y2="410.3394"/><line style="stroke:#333333;stroke-width:0.5;stroke-dasharray:3,5;" x1="3477.0605" x2="3477.0605" y1="47.0986" y2="410.3394"/><line style="stroke:#333333;stroke-width:0.5;stroke-dasharray:3,5;" x1="3527.0605" x2="3527.0605" y1="47.0986" y2="410.3394"/><line style="stroke:#333333;stroke-width:0.5;stroke-dasharray:3,5;" x1="3577.0605" x2="3577.0605" y1="47.0986" y2="410.3394"/><line style="stroke:#333333;stroke-width:0.5;stroke-dasharray:3,5;" x1="3627.0605" x2="3627.0605" y1="47.0986" y2="410.3394"/><line style="stroke:#333333;stroke-width:0.5;stroke-dasharray:3,5;" x1="3677.0605" x2="3677.0605" y1="47.0986" y2="410.3394"/><line style="stroke:#333333;stroke-width:0.5;stroke-dasharray:3,5;" x1="3727.0605" x2="3727.0605" y1="47.0986" y2="410.3394"/><line style="stroke:#333333;stroke-width:0.5;stroke-dasharray:3,5;" x1="3777.0605" x2="3777.0605" y1="47.0986" y2="410.3394"/><line style="stroke:#333333;stroke-width:0.5;stroke-dasharray:3,5;" x1="3827.0605" x2="3827.0605" y1="47.0986" y2="410.3394"/><line style="stroke:#333333;stroke-width:0.5;stroke-dasharray:3,5;" x1="3877.0605" x2="3877.0605" y1="47.0986" y2="410.3394"/><line style="stroke:#333333;stroke-width:0.5;stroke-dasharray:3,5;" x1="3927.0605" x2="3927.0605" y1="47.0986" y2="410.3394"/><line style="stroke:#333333;stroke-width:0.5;stroke-dasharray:3,5;" x1="3977.0605" x2="3977.0605" y1="47.0986" y2="410.3394"/><line style="stroke:#333333;stroke-width:0.5;stroke-dasharray:3,5;" x1="4027.0605" x2="4027.0605" y1="47.0986" y2="410.3394"/><line style="stroke:#333333;stroke-width:0.5;stroke-dasharray:3,5;" x1="4077.0605" x2="4077.0605" y1="47.0986" y2="410.3394"/><line style="stroke:#333333;stroke-width:0.5;stroke-dasharray:3,5;" x1="4127.0605" x2="4127.0605" y1="47.0986" y2="410.3394"/><line style="stroke:#333333;stroke-width:0.5;" x1="10" x2="4158.8945" y1="47.0986" y2="47.0986"/><text fill="#333333" font-family="sans-serif" font-size="14" font-weight="bold" lengthAdjust="spacing" textLength="38.876" x="15" y="60.2305">Motor</text><line style="stroke:#333333;stroke-width:0.5;" x1="10" x2="54.876" y1="64.1973" y2="64.1973"/><line style="stroke:#333333;stroke-width:0.5;" x1="54.876" x2="64.876" y1="64.1973" y2="47.0986"/><text fill="#333333" font-family="sans-serif" font-size="12" lengthAdjust="spacing" textLength="112.0605" x="15" y="134.5537">Running (short push)</text><text fill="#333333" font-family="sans-serif" font-size="12" lengthAdjust="spacing" textLength="68.7012" x="15" y="114.5537">Transitioning</text><text fill="#333333" font-family="sans-serif" font-size="12" lengthAdjust="spacing" textLength="44.7012" x="15" y="94.5537">Running</text><text fill="#333333" font-family="sans-serif" font-size="12" lengthAdjust="spacing" textLength="19.3477" x="15" y="74.5537">Idle</text><line style="stroke:#006400;stroke-width:2;" x1="127.0605" x2="984.9756" y1="129.1973" y2="129.1973"/><line style="stroke:#006400;stroke-width:2;" x1="984.9756" x2="999.4544" y1="109.1973" y2="109.1973"/><line style="stroke:#006400;stroke-width:2;" x1="999.4544" x2="3189.0297" y1="89.1973" y2="89.1973"/><line style="stroke:#006400;stroke-width:2;" x1="3189.0297" x2="4100.6127" y1="89.1973" y2="89.1973"/><line style="stroke:#006400;stroke-width:2;" x1="4100.6127" x2="4153.8945" y1="69.1973" y2="69.1973"/><line style="stroke:#006400;stroke-width:2;" x1="984.9756" x2="984.9756" y1="109.1973" y2="129.1973"/><line style="stroke:#006400;stroke-width:2;" x1="999.4544" x2="999.4544" y1="89.1973" y2="109.1973"/><line style="stroke:#006400;stroke-width:2;" x1="3189.0297" x2="3189.0297" y1="89.1973" y2="89.1973"/><line style="stroke:#006400;stroke-width:2;" x1="4100.6127" x2="4100.6127" y1="69.1973" y2="89.1973"/><line style="stroke:#333333;stroke-width:0.5;" x1="10" x2="4158.8945" y1="141.1973" y2="141.1973"/><text fill="#333333" font-family="sans-serif" font-size="14" font-weight="bold" lengthAdjust="spacing" textLength="47.4619" x="15" y="154.3291">Sensor</text><line style="stroke:#333333;stroke-width:0.5;" x1="10" x2="63.4619" y1="158.2959" y2="158.2959"/><line style="stroke:#333333;stroke-width:0.5;" x1="63.4619" x2="73.4619" y1="158.2959" y2="141.1973"/><text fill="#333333" font-family="sans-serif" font-size="12" lengthAdjust="spacing" textLength="34.0078" x="74.0313" y="188.6523">Empty</text><text fill="#333333" font-family="sans-serif" font-size="12" lengthAdjust="spacing" textLength="48.0293" x="74.0313" y="168.6523">Detected</text><line style="stroke:#006400;stroke-width:2;" x1="127.0605" x2="984.9756" y1="183.2959" y2="183.2959"/><line style="stroke:#006400;stroke-width:2;" x1="984.9756" x2="4153.8945" y1="163.2959" y2="163.2959"/><line style="stroke:#006400;stroke-width:2;" x1="984.9756" x2="984.9756" y1="163.2959" y2="183.2959"/><line style="stroke:#333333;stroke-width:0.5;" x1="10" x2="4158.8945" y1="195.2959" y2="195.2959"/><text fill="#333333" font-family="sans-serif" font-size="14" font-weight="bold" lengthAdjust="spacing" textLength="42.7861" x="15" y="208.4277">Status</text><line style="stroke:#333333;stroke-width:0.5;" x1="10" x2="58.7861" y1="212.3945" y2="212.3945"/><line style="stroke:#333333;stroke-width:0.5;" x1="58.7861" x2="68.7861" y1="212.3945" y2="195.2959"/><text fill="#333333" font-family="sans-serif" font-size="12" lengthAdjust="spacing" textLength="79.3652" x="38.0488" y="282.751">Blocking (4.4s)</text><text fill="#333333" font-family="sans-serif" font-size="12" lengthAdjust="spacing" textLength="17.3379" x="38.0488" y="262.751">OK</text><text fill="#333333" font-family="sans-serif" font-size="12" lengthAdjust="spacing" textLength="74.0332" x="38.0488" y="242.751">0x0C (polling)</text><text fill="#333333" font-family="sans-serif" font-size="12" lengthAdjust="spacing" textLength="84.0117" x="38.0488" y="222.751">OK (4x confirm)</text><line style="stroke:#006400;stroke-width:2;" x1="127.0605" x2="984.9756" y1="277.3945" y2="277.3945"/><line style="stroke:#006400;stroke-width:2;" x1="984.9756" x2="999.4544" y1="257.3945" y2="257.3945"/><line style="stroke:#006400;stroke-width:2;" x1="999.4544" x2="3189.0297" y1="237.3945" y2="237.3945"/><line style="stroke:#006400;stroke-width:2;" x1="3189.0297" x2="4100.6127" y1="257.3945" y2="257.3945"/><line style="stroke:#006400;stroke-width:2;" x1="4100.6127" x2="4153.8945" y1="217.3945" y2="217.3945"/><line style="stroke:#006400;stroke-width:2;" x1="984.9756" x2="984.9756" y1="257.3945" y2="277.3945"/><line style="stroke:#006400;stroke-width:2;" x1="999.4544" x2="999.4544" y1="237.3945" y2="257.3945"/><line style="stroke:#006400;stroke-width:2;" x1="3189.0297" x2="3189.0297" y1="237.3945" y2="257.3945"/><line style="stroke:#006400;stroke-width:2;" x1="4100.6127" x2="4100.6127" y1="217.3945" y2="257.3945"/><line style="stroke:#333333;stroke-width:0.5;" x1="10" x2="4158.8945" y1="289.3945" y2="289.3945"/><text fill="#333333" font-family="sans-serif" font-size="14" font-weight="bold" lengthAdjust="spacing" textLength="41.248" x="15" y="302.5264">Phase</text><line style="stroke:#333333;stroke-width:0.5;" x1="10" x2="57.248" y1="306.4932" y2="306.4932"/><line style="stroke:#333333;stroke-width:0.5;" x1="57.248" x2="67.248" y1="306.4932" y2="289.3945"/><polygon fill="#E2E2F0" points="139.0605,311.4932,972.9756,311.4932,984.9756,323.4932,972.9756,335.4932,139.0605,335.4932,127.0605,323.4932" style="stroke:#006400;stroke-width:1.5;"/><polygon fill="#E2E2F0" points="996.9756,311.4932,987.4544,311.4932,999.4544,323.4932,987.4544,335.4932,996.9756,335.4932,984.9756,323.4932" style="stroke:#006400;stroke-width:1.5;"/><polygon fill="#E2E2F0" points="1011.4544,311.4932,3177.0297,311.4932,3189.0297,323.4932,3177.0297,335.4932,1011.4544,335.4932,999.4544,323.4932" style="stroke:#006400;stroke-width:1.5;"/><polygon fill="#E2E2F0" points="3201.0297,311.4932,4088.6127,311.4932,4100.6127,323.4932,4088.6127,335.4932,3201.0297,335.4932,3189.0297,323.4932" style="stroke:#006400;stroke-width:1.5;"/><polygon fill="#E2E2F0" points="4112.6127,311.4932,4091.8945,311.4932,4103.8945,323.4932,4091.8945,335.4932,4112.6127,335.4932,4100.6127,323.4932" style="stroke:#006400;stroke-width:1.5;"/><polygon fill="#E2E2F0" points="4115.8945,311.4932,4153.8945,311.4932,4153.8945,335.4932,4115.8945,335.4932,4103.8945,323.4932" style="stroke:#E2E2F0;stroke-width:1.5;"/><path d="M4153.8945,311.4932 L4115.8945,311.4932 L4103.8945,323.4932 L4115.8945,335.4932 L4153.8945,335.4932" fill="#E2E2F0" style="stroke:#006400;stroke-width:1.5;"/><text fill="#333333" font-family="sans-serif" font-size="12" font-weight="bold" lengthAdjust="spacing" textLength="22.6641" x="544.686" y="327.8496">INIT</text><text fill="#333333" font-family="sans-serif" font-size="12" font-weight="bold" lengthAdjust="spacing" textLength="122.0215" x="931.2042" y="327.8496">SENSOR_DETECTED</text><text fill="#333333" font-family="sans-serif" font-size="12" font-weight="bold" lengthAdjust="spacing" textLength="128.0215" x="2030.2313" y="327.8496">FEED_TO_EXTRUDER</text><text fill="#333333" font-family="sans-serif" font-size="12" font-weight="bold" lengthAdjust="spacing" textLength="39.9961" x="3624.8231" y="327.8496">FLUSH</text><text fill="#333333" font-family="sans-serif" font-size="12" font-weight="bold" lengthAdjust="spacing" textLength="66.668" x="4068.9196" y="327.8496">COMPLETE</text><text fill="#333333" font-family="sans-serif" font-size="12" font-weight="bold" lengthAdjust="spacing" textLength="30" x="4115.8945" y="327.8496">Done</text><path d="M4103.8945,340.4932 L4103.8945,395.3394 L4423.9453,395.3394 L4423.9453,350.4932 L4413.9453,340.4932 L4103.8945,340.4932" fill="#FEFFDD" style="stroke:#333333;stroke-width:0.5;"/><path d="M4413.9453,340.4932 L4413.9453,350.4932 L4423.9453,350.4932 L4413.9453,340.4932" fill="#FEFFDD" style="stroke:#333333;stroke-width:0.5;"/><text fill="#333333" font-family="sans-serif" font-size="13" font-weight="bold" lengthAdjust="spacing" textLength="139.7944" x="4109.8945" y="357.687">Total load time: ~20.6s</text><text fill="#333333" font-family="sans-serif" font-size="13" font-weight="bold" lengthAdjust="spacing" textLength="139.769" x="4109.8945" y="372.6357">FLUSH duration: ~4.7s</text><text fill="#333333" font-family="sans-serif" font-size="13" font-weight="bold" lengthAdjust="spacing" textLength="299.0508" x="4109.8945" y="387.5845">Times are offsets from INIT, not phase durations</text><line style="stroke:#333333;stroke-width:2;" x1="127.0605" x2="127.0605" y1="410.3394" y2="415.3394"/><line style="stroke:#333333;stroke-width:2;" x1="177.0605" x2="177.0605" y1="410.3394" y2="415.3394"/><line style="stroke:#333333;stroke-width:2;" x1="227.0605" x2="227.0605" y1="410.3394" y2="415.3394"/><line style="stroke:#333333;stroke-width:2;" x1="277.0605" x2="277.0605" y1="410.3394" y2="415.3394"/><line style="stroke:#333333;stroke-width:2;" x1="327.0605" x2="327.0605" y1="410.3394" y2="415.3394"/><line style="stroke:#333333;stroke-width:2;" x1="377.0605" x2="377.0605" y1="410.3394" y2="415.3394"/><line style="stroke:#333333;stroke-width:2;" x1="427.0605" x2="427.0605" y1="410.3394" y2="415.3394"/><line style="stroke:#333333;stroke-width:2;" x1="477.0605" x2="477.0605" y1="410.3394" y2="415.3394"/><line style="stroke:#333333;stroke-width:2;" x1="527.0605" x2="527.0605" y1="410.3394" y2="415.3394"/><line style="stroke:#333333;stroke-width:2;" x1="577.0605" x2="577.0605" y1="410.3394" y2="415.3394"/><line style="stroke:#333333;stroke-width:2;" x1="627.0605" x2="627.0605" y1="410.3394" y2="415.3394"/><line style="stroke:#333333;stroke-width:2;" x1="677.0605" x2="677.0605" y1="410.3394" y2="415.3394"/><line style="stroke:#333333;stroke-width:2;" x1="727.0605" x2="727.0605" y1="410.3394" y2="415.3394"/><line style="stroke:#333333;stroke-width:2;" x1="777.0605" x2="777.0605" y1="410.3394" y2="415.3394"/><line style="stroke:#333333;stroke-width:2;" x1="827.0605" x2="827.0605" y1="410.3394" y2="415.3394"/><line style="stroke:#333333;stroke-width:2;" x1="877.0605" x2="877.0605" y1="410.3394" y2="415.3394"/><line style="stroke:#333333;stroke-width:2;" x1="927.0605" x2="927.0605" y1="410.3394" y2="415.3394"/><line style="stroke:#333333;stroke-width:2;" x1="977.0605" x2="977.0605" y1="410.3394" y2="415.3394"/><line style="stroke:#333333;stroke-width:2;" x1="1027.0605" x2="1027.0605" y1="410.3394" y2="415.3394"/><line style="stroke:#333333;stroke-width:2;" x1="1077.0605" x2="1077.0605" y1="410.3394" y2="415.3394"/><line style="stroke:#333333;stroke-width:2;" x1="1127.0605" x2="1127.0605" y1="410.3394" y2="415.3394"/><line style="stroke:#333333;stroke-width:2;" x1="1177.0605" x2="1177.0605" y1="410.3394" y2="415.3394"/><line style="stroke:#333333;stroke-width:2;" x1="1227.0605" x2="1227.0605" y1="410.3394" y2="415.3394"/><line style="stroke:#333333;stroke-width:2;" x1="1277.0605" x2="1277.0605" y1="410.3394" y2="415.3394"/><line style="stroke:#333333;stroke-width:2;" x1="1327.0605" x2="1327.0605" y1="410.3394" y2="415.3394"/><line style="stroke:#333333;stroke-width:2;" x1="1377.0605" x2="1377.0605" y1="410.3394" y2="415.3394"/><line style="stroke:#333333;stroke-width:2;" x1="1427.0605" x2="1427.0605" y1="410.3394" y2="415.3394"/><line style="stroke:#333333;stroke-width:2;" x1="1477.0605" x2="1477.0605" y1="410.3394" y2="415.3394"/><line style="stroke:#333333;stroke-width:2;" x1="1527.0605" x2="1527.0605" y1="410.3394" y2="415.3394"/><line style="stroke:#333333;stroke-width:2;" x1="1577.0605" x2="1577.0605" y1="410.3394" y2="415.3394"/><line style="stroke:#333333;stroke-width:2;" x1="1627.0605" x2="1627.0605" y1="410.3394" y2="415.3394"/><line style="stroke:#333333;stroke-width:2;" x1="1677.0605" x2="1677.0605" y1="410.3394" y2="415.3394"/><line style="stroke:#333333;stroke-width:2;" x1="1727.0605" x2="1727.0605" y1="410.3394" y2="415.3394"/><line style="stroke:#333333;stroke-width:2;" x1="1777.0605" x2="1777.0605" y1="410.3394" y2="415.3394"/><line style="stroke:#333333;stroke-width:2;" x1="1827.0605" x2="1827.0605" y1="410.3394" y2="415.3394"/><line style="stroke:#333333;stroke-width:2;" x1="1877.0605" x2="1877.0605" y1="410.3394" y2="415.3394"/><line style="stroke:#333333;stroke-width:2;" x1="1927.0605" x2="1927.0605" y1="410.3394" y2="415.3394"/><line style="stroke:#333333;stroke-width:2;" x1="1977.0605" x2="1977.0605" y1="410.3394" y2="415.3394"/><line style="stroke:#333333;stroke-width:2;" x1="2027.0605" x2="2027.0605" y1="410.3394" y2="415.3394"/><line style="stroke:#333333;stroke-width:2;" x1="2077.0605" x2="2077.0605" y1="410.3394" y2="415.3394"/><line style="stroke:#333333;stroke-width:2;" x1="2127.0605" x2="2127.0605" y1="410.3394" y2="415.3394"/><line style="stroke:#333333;stroke-width:2;" x1="2177.0605" x2="2177.0605" y1="410.3394" y2="415.3394"/><line style="stroke:#333333;stroke-width:2;" x1="2227.0605" x2="2227.0605" y1="410.3394" y2="415.3394"/><line style="stroke:#333333;stroke-width:2;" x1="2277.0605" x2="2277.0605" y1="410.3394" y2="415.3394"/><line style="stroke:#333333;stroke-width:2;" x1="2327.0605" x2="2327.0605" y1="410.3394" y2="415.3394"/><line style="stroke:#333333;stroke-width:2;" x1="2377.0605" x2="2377.0605" y1="410.3394" y2="415.3394"/><line style="stroke:#333333;stroke-width:2;" x1="2427.0605" x2="2427.0605" y1="410.3394" y2="415.3394"/><line style="stroke:#333333;stroke-width:2;" x1="2477.0605" x2="2477.0605" y1="410.3394" y2="415.3394"/><line style="stroke:#333333;stroke-width:2;" x1="2527.0605" x2="2527.0605" y1="410.3394" y2="415.3394"/><line style="stroke:#333333;stroke-width:2;" x1="2577.0605" x2="2577.0605" y1="410.3394" y2="415.3394"/><line style="stroke:#333333;stroke-width:2;" x1="2627.0605" x2="2627.0605" y1="410.3394" y2="415.3394"/><line style="stroke:#333333;stroke-width:2;" x1="2677.0605" x2="2677.0605" y1="410.3394" y2="415.3394"/><line style="stroke:#333333;stroke-width:2;" x1="2727.0605" x2="2727.0605" y1="410.3394" y2="415.3394"/><line style="stroke:#333333;stroke-width:2;" x1="2777.0605" x2="2777.0605" y1="410.3394" y2="415.3394"/><line style="stroke:#333333;stroke-width:2;" x1="2827.0605" x2="2827.0605" y1="410.3394" y2="415.3394"/><line style="stroke:#333333;stroke-width:2;" x1="2877.0605" x2="2877.0605" y1="410.3394" y2="415.3394"/><line style="stroke:#333333;stroke-width:2;" x1="2927.0605" x2="2927.0605" y1="410.3394" y2="415.3394"/><line style="stroke:#333333;stroke-width:2;" x1="2977.0605" x2="2977.0605" y1="410.3394" y2="415.3394"/><line style="stroke:#333333;stroke-width:2;" x1="3027.0605" x2="3027.0605" y1="410.3394" y2="415.3394"/><line style="stroke:#333333;stroke-width:2;" x1="3077.0605" x2="3077.0605" y1="410.3394" y2="415.3394"/><line style="stroke:#333333;stroke-width:2;" x1="3127.0605" x2="3127.0605" y1="410.3394" y2="415.3394"/><line style="stroke:#333333;stroke-width:2;" x1="3177.0605" x2="3177.0605" y1="410.3394" y2="415.3394"/><line style="stroke:#333333;stroke-width:2;" x1="3227.0605" x2="3227.0605" y1="410.3394" y2="415.3394"/><line style="stroke:#333333;stroke-width:2;" x1="3277.0605" x2="3277.0605" y1="410.3394" y2="415.3394"/><line style="stroke:#333333;stroke-width:2;" x1="3327.0605" x2="3327.0605" y1="410.3394" y2="415.3394"/><line style="stroke:#333333;stroke-width:2;" x1="3377.0605" x2="3377.0605" y1="410.3394" y2="415.3394"/><line style="stroke:#333333;stroke-width:2;" x1="3427.0605" x2="3427.0605" y1="410.3394" y2="415.3394"/><line style="stroke:#333333;stroke-width:2;" x1="3477.0605" x2="3477.0605" y1="410.3394" y2="415.3394"/><line style="stroke:#333333;stroke-width:2;" x1="3527.0605" x2="3527.0605" y1="410.3394" y2="415.3394"/><line style="stroke:#333333;stroke-width:2;" x1="3577.0605" x2="3577.0605" y1="410.3394" y2="415.3394"/><line style="stroke:#333333;stroke-width:2;" x1="3627.0605" x2="3627.0605" y1="410.3394" y2="415.3394"/><line style="stroke:#333333;stroke-width:2;" x1="3677.0605" x2="3677.0605" y1="410.3394" y2="415.3394"/><line style="stroke:#333333;stroke-width:2;" x1="3727.0605" x2="3727.0605" y1="410.3394" y2="415.3394"/><line style="stroke:#333333;stroke-width:2;" x1="3777.0605" x2="3777.0605" y1="410.3394" y2="415.3394"/><line style="stroke:#333333;stroke-width:2;" x1="3827.0605" x2="3827.0605" y1="410.3394" y2="415.3394"/><line style="stroke:#333333;stroke-width:2;" x1="3877.0605" x2="3877.0605" y1="410.3394" y2="415.3394"/><line style="stroke:#333333;stroke-width:2;" x1="3927.0605" x2="3927.0605" y1="410.3394" y2="415.3394"/><line style="stroke:#333333;stroke-width:2;" x1="3977.0605" x2="3977.0605" y1="410.3394" y2="415.3394"/><line style="stroke:#333333;stroke-width:2;" x1="4027.0605" x2="4027.0605" y1="410.3394" y2="415.3394"/><line style="stroke:#333333;stroke-width:2;" x1="4077.0605" x2="4077.0605" y1="410.3394" y2="415.3394"/><line style="stroke:#333333;stroke-width:2;" x1="4127.0605" x2="4127.0605" y1="410.3394" y2="415.3394"/><line style="stroke:#333333;stroke-width:2;" x1="127.0605" x2="4127.0605" y1="410.3394" y2="410.3394"/><text fill="#333333" font-family="sans-serif" font-size="11" lengthAdjust="spacing" textLength="6.1177" x="124.0017" y="426.6572">0</text><text fill="#333333" font-family="sans-serif" font-size="11" lengthAdjust="spacing" textLength="24.4707" x="972.7403" y="426.6572">4444</text><text fill="#333333" font-family="sans-serif" font-size="11" lengthAdjust="spacing" textLength="24.4707" x="987.219" y="426.6572">4519</text><text fill="#333333" font-family="sans-serif" font-size="11" lengthAdjust="spacing" textLength="30.5884" x="3173.7355" y="426.6572">15861</text><text fill="#333333" font-family="sans-serif" font-size="11" lengthAdjust="spacing" textLength="30.5884" x="4085.3185" y="426.6572">20583</text><text fill="#333333" font-family="sans-serif" font-size="11" lengthAdjust="spacing" textLength="30.5884" x="4088.6003" y="426.6572">20600</text><!--SRC=[VLDDZzem4BtxLupe1QGM9HJe5gdIjYIhecMN5MIbtf1935WuDh8dMhZiRz-n4vQeNt1nFFFclPatHebAmDpm0Z9PIhs3HFATvILqi_Wxy1mhhg3Wo7lC7QG-SX_RyFomiwRInTGeO-73NUh_Z5cpgHn2vy6WiHtW3iBf_Nubj6i2zV4QGOwLgoFXo7AZS-a4T9xst8aG2IV6RYCMJY0Tp1vd6Gia_gkphBJsNNJTtbY4O-NslGwhkNn2MXxnp6g60FYXJ7u8Y65_w2YNtGxfToLOfO-hnNATf5awpTAanPLPhfr4QJnZcoGHA78KHOjdSUyBZ-Alry9tQPgiiyKw_PKjdvDqUQtSDD6M6PsYANIFHYaA19Nnw6OSjwhDdrS__rSYA1X4evlFLz1qyV0qfyQkk5cXH9jtSK-3EG5viPMs3CI3Q1or34YC9akqGG4RWsXACDl6A83C8AsFykk5iXGJU1r4_R6ZID0BHMMv7o05Xlql_fwsK3ZWLb2PhHFeO6kffhVv8n0B70Fn1UYOq8M__rD3iqOGi1FON8pEkLBGVGrsmoSeG-ksqiuNzGcufxQyN2_pDvCcboVHMD78wRf0zitRr2FOPR2KhbxusO4LM5djNG1PbgAG78Kw_rjy_Mne72-cKHY8t8JkudxJqbO8cgiXs0bSlNrDNvGrwFz5l39UCZqA3nCdj5KXF2YE2VCkvWq0]--></g></svg>