<svg xmlns="http://www.w3.org/2000/svg" xmlns:xlink="http://www.w3.org/1999/xlink" contentStyleType="text/css" data-diagram-type="TIMING" height="261px" preserveAspectRatio="none" style="width:311px;height:261px;background:#FEFEFE;" version="1.1" viewBox="0 0 311 261" width="311px" zoomAndPan="magnify"><title>Unload Timing Diagram</title><defs/><g><rect fill="#FEFEFE" height="261" style="stroke:none;stroke-width:1;" width="311" x="0" y="0"/><g class="title" data-source-line="1"><text fill="#000000" font-family="sans-serif" font-size="14" font-weight="bold" lengthAdjust="spacing" textLength="157.124" x="63.6177" y="33.1318">Unload Timing Diagram</text></g><line style="stroke:#333333;stroke-width:0.5;" x1="10" x2="10" y1="47.0986" y2="231.3945"/><line style="stroke:#333333;stroke-width:0.5;" x1="275.3594" x2="275.3594" y1="47.0986" y2="231.3945"/><line style="stroke:#333333;stroke-width:0.5;stroke-dasharray:3,5;" x1="70.3594" x2="70.3594" y1="47.0986" y2="231.3945"/><line style="stroke:#333333;stroke-width:0.5;stroke-dasharray:3,5;" x1="120.3594" x2="120.3594" y1="47.0986" y2="231.3945"/><line style="stroke:#333333;stroke-width:0.5;stroke-dasharray:3,5;" x1="170.3594" x2="170.3594" y1="47.0986" y2="231.3945"/><line style="stroke:#333333;stroke-width:0.5;stroke-dasharray:3,5;" x1="220.3594" x2="220.3594" y1="47.0986" y2="231.3945"/><line style="stroke:#333333;stroke-width:0.5;stroke-dasharray:3,5;" x1="270.3594" x2="270.3594" y1="47.0986" y2="231.3945"/><line style="stroke:#333333;stroke-width:0.5;" x1="10" x2="275.3594" y1="47.0986" y2="47.0986"/><text fill="#333333" font-family="sans-serif" font-size="14" font-weight="bold" lengthAdjust="spacing" textLength="38.876" x="15" y="60.2305">Motor</text><line style="stroke:#333333;stroke-width:0.5;" x1="10" x2="54.876" y1="64.1973" y2="64.1973"/><line style="stroke:#333333;stroke-width:0.5;" x1="54.876" x2="64.876" y1="64.1973" y2="47.0986"/><text fill="#333333" font-family="sans-serif" font-size="12" lengthAdjust="spacing" textLength="44.6836" x="20.6758" y="94.5537">Reverse</text><text fill="#333333" font-family="sans-serif" font-size="12" lengthAdjust="spacing" textLength="19.3477" x="20.6758" y="74.5537">Idle</text><line style="stroke:#006400;stroke-width:2;" x1="70.3594" x2="220.3594" y1="89.1973" y2="89.1973"/><line style="stroke:#006400;stroke-width:2;" x1="220.3594" x2="270.3594" y1="69.1973" y2="69.1973"/><line style="stroke:#006400;stroke-width:2;" x1="220.3594" x2="220.3594" y1="69.1973" y2="89.1973"/><line style="stroke:#333333;stroke-width:0.5;" x1="10" x2="275.3594" y1="101.1973" y2="101.1973"/><text fill="#333333" font-family="sans-serif" font-size="14" font-weight="bold" lengthAdjust="spacing" textLength="57.5654" x="15" y="114.3291">Filament</text><line style="stroke:#333333;stroke-width:0.5;" x1="10" x2="73.5654" y1="118.2959" y2="118.2959"/><line style="stroke:#333333;stroke-width:0.5;" x1="73.5654" x2="83.5654" y1="118.2959" y2="101.1973"/><text fill="#333333" font-family="sans-serif" font-size="12" lengthAdjust="spacing" textLength="55.3594" x="15" y="168.6523">InExtruder</text><text fill="#333333" font-family="sans-serif" font-size="12" lengthAdjust="spacing" textLength="54.6914" x="15" y="148.6523">Retracting</text><text fill="#333333" font-family="sans-serif" font-size="12" lengthAdjust="spacing" textLength="30.6855" x="15" y="128.6523">InBox</text><line style="stroke:#006400;stroke-width:2;" x1="70.3594" x2="120.3594" y1="163.2959" y2="163.2959"/><line style="stroke:#006400;stroke-width:2;" x1="120.3594" x2="170.3594" y1="143.2959" y2="143.2959"/><line style="stroke:#006400;stroke-width:2;" x1="170.3594" x2="220.3594" y1="143.2959" y2="143.2959"/><line style="stroke:#006400;stroke-width:2;" x1="220.3594" x2="270.3594" y1="123.2959" y2="123.2959"/><line style="stroke:#006400;stroke-width:2;" x1="120.3594" x2="120.3594" y1="143.2959" y2="163.2959"/><line style="stroke:#006400;stroke-width:2;" x1="170.3594" x2="170.3594" y1="143.2959" y2="143.2959"/><line style="stroke:#006400;stroke-width:2;" x1="220.3594" x2="220.3594" y1="123.2959" y2="143.2959"/><line style="stroke:#333333;stroke-width:0.5;" x1="10" x2="275.3594" y1="175.2959" y2="175.2959"/><text fill="#333333" font-family="sans-serif" font-size="14" font-weight="bold" lengthAdjust="spacing" textLength="41.248" x="15" y="188.4277">Phase</text><line style="stroke:#333333;stroke-width:0.5;" x1="10" x2="57.248" y1="192.3945" y2="192.3945"/><line style="stroke:#333333;stroke-width:0.5;" x1="57.248" x2="67.248" y1="192.3945" y2="175.2959"/><polygon fill="#E2E2F0" points="82.3594,197.3945,108.3594,197.3945,120.3594,209.3945,108.3594,221.3945,82.3594,221.3945,70.3594,209.3945" style="stroke:#006400;stroke-width:1.5;"/><polygon fill="#E2E2F0" points="132.3594,197.3945,158.3594,197.3945,170.3594,209.3945,158.3594,221.3945,132.3594,221.3945,120.3594,209.3945" style="stroke:#006400;stroke-width:1.5;"/><polygon fill="#E2E2F0" points="182.3594,197.3945,208.3594,197.3945,220.3594,209.3945,208.3594,221.3945,182.3594,221.3945,170.3594,209.3945" style="stroke:#006400;stroke-width:1.5;"/><polygon fill="#E2E2F0" points="232.3594,197.3945,270.3594,197.3945,270.3594,221.3945,232.3594,221.3945,220.3594,209.3945" style="stroke:#E2E2F0;stroke-width:1.5;"/><path d="M270.3594,197.3945 L232.3594,197.3945 L220.3594,209.3945 L232.3594,221.3945 L270.3594,221.3945" fill="#E2E2F0" style="stroke:#006400;stroke-width:1.5;"/><text fill="#333333" font-family="sans-serif" font-size="12" font-weight="bold" lengthAdjust="spacing" textLength="53.332" x="68.6934" y="213.751">POLLING</text><text fill="#333333" font-family="sans-serif" font-size="12" font-weight="bold" lengthAdjust="spacing" textLength="53.332" x="118.6934" y="213.751">POLLING</text><text fill="#333333" font-family="sans-serif" font-size="12" font-weight="bold" lengthAdjust="spacing" textLength="53.332" x="168.6934" y="213.751">POLLING</text><text fill="#333333" font-family="sans-serif" font-size="12" font-weight="bold" lengthAdjust="spacing" textLength="66.668" x="232.3594" y="213.751">COMPLETE</text><line style="stroke:#333333;stroke-width:2;" x1="70.3594" x2="70.3594" y1="231.3945" y2="236.3945"/><line style="stroke:#333333;stroke-width:2;" x1="120.3594" x2="120.3594" y1="231.3945" y2="236.3945"/><line style="stroke:#333333;stroke-width:2;" x1="170.3594" x2="170.3594" y1="231.3945" y2="236.3945"/><line style="stroke:#333333;stroke-width:2;" x1="220.3594" x2="220.3594" y1="231.3945" y2="236.3945"/><line style="stroke:#333333;stroke-width:2;" x1="270.3594" x2="270.3594" y1="231.3945" y2="236.3945"/><line style="stroke:#333333;stroke-width:2;" x1="70.3594" x2="270.3594" y1="231.3945" y2="231.3945"/><text fill="#333333" font-family="sans-serif" font-size="11" lengthAdjust="spacing" textLength="6.1177" x="67.3005" y="247.7124">0</text><text fill="#333333" font-family="sans-serif" font-size="11" lengthAdjust="spacing" textLength="24.4707" x="108.124" y="247.7124">5000</text><text fill="#333333" font-family="sans-serif" font-size="11" lengthAdjust="spacing" textLength="30.5884" x="155.0652" y="247.7124">10000</text><text fill="#333333" font-family="sans-serif" font-size="11" lengthAdjust="spacing" textLength="30.5884" x="205.0652" y="247.7124">15000</text><!--SRC=[bK_B2i903BpdAqBzWNhmBcgLGjLIz0DYkzIbsuraj-BdkrtmYHV9PJ8p6IPUUwFmQ0rJWmVTQzlYIbChr8FhjBrGG7YYkck51ziisR3WP9sD0o1y6fp7PCkU9K5o6D6JNsj3lR8-Iey5QhQrTWgJyanEHIqYW7aA4Q4ErBueyjq6Ok98LEgg9BWUEIENs-pcPMYKXEDPclwuVxTNoWlLFdmPxDFqJ_zd_dA_BOliaBqAvetvRhVW6zm1]--></g></svg>