<svg xmlns="http://www.w3.org/2000/svg" xmlns:xlink="http://www.w3.org/1999/xlink" contentStyleType="text/css" data-diagram-type="ACTIVITY" height="713px" preserveAspectRatio="none" style="width:204px;height:713px;background:#FEFEFE;" version="1.1" viewBox="0 0 204 713" width="204px" zoomAndPan="magnify"><title>Unload Activity Diagram</title><defs/><g><rect fill="#FEFEFE" height="713" style="stroke:none;stroke-width:1;" width="204" x="0" y="0"/><g class="title" data-source-line="1"><text fill="#000000" font-family="sans-serif" font-size="14" font-weight="bold" lengthAdjust="spacing" textLength="161.8135" x="20" y="33.1318">Unload Activity Diagram</text></g><ellipse cx="95.7417" cy="57.0986" fill="#222222" rx="10" ry="10" style="stroke:#222222;stroke-width:1;"/><rect fill="#F1F1F1" height="33.7988" rx="12.5" ry="12.5" style="stroke:#181818;stroke-width:0.5;" width="161.4102" x="15.0366" y="87.0986"/><text fill="#000000" font-family="sans-serif" font-size="12" lengthAdjust="spacing" textLength="141.4102" x="25.0366" y="108.3545">Receive box_quit_material</text><rect fill="#F1F1F1" height="33.7988" rx="12.5" ry="12.5" style="stroke:#181818;stroke-width:0.5;" width="166.0684" x="12.7075" y="140.8975"/><text fill="#000000" font-family="sans-serif" font-size="12" lengthAdjust="spacing" textLength="146.0684" x="22.7075" y="162.1533">Initialize unload (POLLING)</text><rect fill="#F1F1F1" height="33.7988" rx="12.5" ry="12.5" style="stroke:#181818;stroke-width:0.5;" width="147.3828" x="22.0503" y="194.6963"/><text fill="#000000" font-family="sans-serif" font-size="12" lengthAdjust="spacing" textLength="127.3828" x="32.0503" y="215.9521">Reverse motor direction</text><rect fill="#F1F1F1" height="33.7988" rx="12.5" ry="12.5" style="stroke:#181818;stroke-width:0.5;" width="104.0293" x="43.7271" y="292.4951"/><text fill="#000000" font-family="sans-serif" font-size="12" lengthAdjust="spacing" textLength="84.0293" x="53.7271" y="313.751">Retract filament</text><rect fill="#F1F1F1" height="33.7988" rx="12.5" ry="12.5" style="stroke:#181818;stroke-width:0.5;" width="112.707" x="39.3882" y="346.2939"/><text fill="#000000" font-family="sans-serif" font-size="12" lengthAdjust="spacing" textLength="92.707" x="49.3882" y="367.5498">Wait 5-7 seconds</text><rect fill="#F1F1F1" height="33.7988" rx="12.5" ry="12.5" style="stroke:#181818;stroke-width:0.5;" width="138.7285" x="26.3774" y="400.0928"/><text fill="#000000" font-family="sans-serif" font-size="12" lengthAdjust="spacing" textLength="118.7285" x="36.3774" y="421.3486">Send POLLING status</text><polygon fill="#F1F1F1" points="95.7417,248.4951,107.7417,260.4951,95.7417,272.4951,83.7417,260.4951,95.7417,248.4951" style="stroke:#181818;stroke-width:0.5;"/><polygon fill="#F1F1F1" points="55.3887,453.8916,136.0947,453.8916,148.0947,465.8916,136.0947,477.8916,55.3887,477.8916,43.3887,465.8916,55.3887,453.8916" style="stroke:#181818;stroke-width:0.5;"/><text fill="#000000" font-family="sans-serif" font-size="11" lengthAdjust="spacing" textLength="80.7061" x="55.3887" y="469.885">Filament in box?</text><text fill="#000000" font-family="sans-serif" font-size="11" lengthAdjust="spacing" textLength="12.2354" x="148.0947" y="463.5605">no</text><rect fill="#F1F1F1" height="33.7988" rx="12.5" ry="12.5" style="stroke:#181818;stroke-width:0.5;" width="122.7031" x="34.3901" y="518.8716"/><text fill="#000000" font-family="sans-serif" font-size="12" lengthAdjust="spacing" textLength="102.7031" x="44.3901" y="540.1274">Signal COMPLETE</text><rect fill="#F1F1F1" height="33.7988" rx="12.5" ry="12.5" style="stroke:#181818;stroke-width:0.5;" width="78.6934" x="56.395" y="572.6704"/><text fill="#000000" font-family="sans-serif" font-size="12" lengthAdjust="spacing" textLength="58.6934" x="66.395" y="593.9263">Stop motor</text><rect fill="#F1F1F1" height="33.7988" rx="12.5" ry="12.5" style="stroke:#181818;stroke-width:0.5;" width="102.7227" x="44.3804" y="626.4692"/><text fill="#000000" font-family="sans-serif" font-size="12" lengthAdjust="spacing" textLength="82.7227" x="54.3804" y="647.7251">Unload finished</text><ellipse cx="95.7417" cy="691.2681" fill="none" rx="11" ry="11" style="stroke:#222222;stroke-width:1;"/><ellipse cx="95.7417" cy="691.2681" fill="#222222" rx="6" ry="6" style="stroke:#222222;stroke-width:1;"/><line style="stroke:#181818;stroke-width:1;" x1="95.7417" x2="95.7417" y1="67.0986" y2="87.0986"/><polygon fill="#181818" points="91.7417,77.0986,95.7417,87.0986,99.7417,77.0986,95.7417,81.0986" style="stroke:#181818;stroke-width:1;"/><line style="stroke:#181818;stroke-width:1;" x1="95.7417" x2="95.7417" y1="120.8975" y2="140.8975"/><polygon fill="#181818" points="91.7417,130.8975,95.7417,140.8975,99.7417,130.8975,95.7417,134.8975" style="stroke:#181818;stroke-width:1;"/><line style="stroke:#181818;stroke-width:1;" x1="95.7417" x2="95.7417" y1="174.6963" y2="194.6963"/><polygon fill="#181818" points="91.7417,184.6963,95.7417,194.6963,99.7417,184.6963,95.7417,188.6963" style="stroke:#181818;stroke-width:1;"/><line style="stroke:#181818;stroke-width:1;" x1="95.7417" x2="95.7417" y1="326.2939" y2="346.2939"/><polygon fill="#181818" points="91.7417,336.2939,95.7417,346.2939,99.7417,336.2939,95.7417,340.2939" style="stroke:#181818;stroke-width:1;"/><line style="stroke:#181818;stroke-width:1;" x1="95.7417" x2="95.7417" y1="380.0928" y2="400.0928"/><polygon fill="#181818" points="91.7417,390.0928,95.7417,400.0928,99.7417,390.0928,95.7417,394.0928" style="stroke:#181818;stroke-width:1;"/><line style="stroke:#181818;stroke-width:1;" x1="95.7417" x2="95.7417" y1="272.4951" y2="292.4951"/><polygon fill="#181818" points="91.7417,282.4951,95.7417,292.4951,99.7417,282.4951,95.7417,286.4951" style="stroke:#181818;stroke-width:1;"/><line style="stroke:#181818;stroke-width:1;" x1="148.0947" x2="177.106" y1="465.8916" y2="465.8916"/><polygon fill="#181818" points="173.106,373.1934,177.106,363.1934,181.106,373.1934,177.106,369.1934" style="stroke:#181818;stroke-width:1;"/><line style="stroke:#181818;stroke-width:1;" x1="177.106" x2="177.106" y1="260.4951" y2="465.8916"/><line style="stroke:#181818;stroke-width:1;" x1="177.106" x2="107.7417" y1="260.4951" y2="260.4951"/><polygon fill="#181818" points="117.7417,256.4951,107.7417,260.4951,117.7417,264.4951,113.7417,260.4951" style="stroke:#181818;stroke-width:1;"/><line style="stroke:#181818;stroke-width:1;" x1="95.7417" x2="95.7417" y1="433.8916" y2="453.8916"/><polygon fill="#181818" points="91.7417,443.8916,95.7417,453.8916,99.7417,443.8916,95.7417,447.8916" style="stroke:#181818;stroke-width:1;"/><line style="stroke:#181818;stroke-width:1;" x1="95.7417" x2="95.7417" y1="228.4951" y2="248.4951"/><polygon fill="#181818" points="91.7417,238.4951,95.7417,248.4951,99.7417,238.4951,95.7417,242.4951" style="stroke:#181818;stroke-width:1;"/><line style="stroke:#181818;stroke-width:1;" x1="95.7417" x2="95.7417" y1="477.8916" y2="518.8716"/><polygon fill="#181818" points="91.7417,508.8716,95.7417,518.8716,99.7417,508.8716,95.7417,512.8716" style="stroke:#181818;stroke-width:1;"/><text fill="#000000" font-family="sans-serif" font-size="11" lengthAdjust="spacing" textLength="17.1177" x="99.7417" y="499.0405">yes</text><line style="stroke:#181818;stroke-width:1;" x1="95.7417" x2="95.7417" y1="552.6704" y2="572.6704"/><polygon fill="#181818" points="91.7417,562.6704,95.7417,572.6704,99.7417,562.6704,95.7417,566.6704" style="stroke:#181818;stroke-width:1;"/><line style="stroke:#181818;stroke-width:1;" x1="95.7417" x2="95.7417" y1="606.4692" y2="626.4692"/><polygon fill="#181818" points="91.7417,616.4692,95.7417,626.4692,99.7417,616.4692,95.7417,620.4692" style="stroke:#181818;stroke-width:1;"/><line style="stroke:#181818;stroke-width:1;" x1="95.7417" x2="95.7417" y1="660.2681" y2="680.2681"/><polygon fill="#181818" points="91.7417,670.2681,95.7417,680.2681,99.7417,670.2681,95.7417,674.2681" style="stroke:#181818;stroke-width:1;"/><!--SRC=[BP11IyDG3CVlxrC4lBI77MMmWYApaq5rmoeUHzQNTM5jNdqlhSvFx-jQSWd_9F_y4cLj23wbSMZXgL8UMA_mp5XxR4sui7GOCpXYTQczwyMkNUCyt6toCOm9YbwDMRrJHJmG7DtluRjdFRIev1cRpAosmXep_YFefqt9VbSKsxUNDBkD3kG3GUiqEbls53cSn9AdZb0DGEnHZvN2YHjiIJGRnIzaXVl54W9LJcouYIM9XTaU8ftsKP-CuEVCyTfaCvi0oyZxc087ICIbPl40LmeZLCcrO0FhtUk-o3_oU4MfhfiOn_hyiXCBXpFPB3x2TUOV]--></g></svg>